<svg version="1.1" viewBox="0.0 0.0 907.0866141732283 415.748031496063" fill="none" stroke="none" stroke-linecap="square" stroke-miterlimit="10" xmlns:xlink="http://www.w3.org/1999/xlink" xmlns="http://www.w3.org/2000/svg"><clipPath id="p.0"><path d="m0 0l907.0866 0l0 415.74802l-907.0866 0l0 -415.74802z" clip-rule="nonzero"/></clipPath><g clip-path="url(#p.0)"><path fill="#000000" fill-opacity="0.0" d="m0 0l907.0866 0l0 415.74802l-907.0866 0z" fill-rule="evenodd"/><path fill="#c7d3e6" d="m730.7769 19.79031l0 0c0 -7.8510075 6.364502 -14.215507 14.215515 -14.215507l94.15161 0c3.7702026 0 7.3859863 1.4977007 10.051941 4.1636257c2.6658936 2.665925 4.163574 6.2816954 4.163574 10.051881l0 56.860325c0 7.8510056 -6.364502 14.2155075 -14.215515 14.2155075l-94.15161 0c-7.851013 0 -14.215515 -6.364502 -14.215515 -14.2155075z" fill-rule="evenodd"/><path fill="#0d2243" d="m773.1885 33.140472l-3.71875 -13.562502l1.671875 0l2.84375 11.046875l0.125 0l2.890625 -11.046875l1.859375 0l2.890625 11.046875l0.125 0l2.84375 -11.046875l1.671875 0l-3.71875 13.562502l-1.6875 0l-3.0 -10.812502l-0.109375 0l-3.0 10.812502l-1.6875 0zm14.394226 0l0 -10.171877l1.5 0l0 1.53125l0.109375 0q0.28125 -0.75 1.0 -1.21875q0.734375 -0.46875 1.65625 -0.46875q0.171875 0 0.421875 0q0.265625 0 0.390625 0.015625l0 1.59375q-0.078125 -0.015625 -0.359375 -0.0625q-0.28125 -0.046875 -0.59375 -0.046875q-0.734375 0 -1.328125 0.3125q-0.578125 0.3125 -0.90625 0.859375q-0.328125 0.53125 -0.328125 1.21875l0 6.437502l-1.5625 0zm6.9431763 0l0 -10.171877l1.5625 0l0 10.171877l-1.5625 0zm0.78125 -11.875002q-0.453125 0 -0.78125 -0.3125q-0.328125 -0.3125 -0.328125 -0.75q0 -0.4375 0.328125 -0.75q0.328125 -0.3125 0.78125 -0.3125q0.46875 0 0.796875 0.3125q0.328125 0.3125 0.328125 0.75q0 0.4375 -0.328125 0.75q-0.328125 0.3125 -0.796875 0.3125zm8.066223 1.703125l0 1.328125l-5.28125 0l0 -1.328125l5.28125 0zm-3.734375 -2.4375l1.5625 0l0 9.6875q0 0.671875 0.1875 1.0q0.203125 0.328125 0.5 0.4375q0.3125 0.109375 0.65625 0.109375q0.265625 0 0.421875 -0.03125q0.171875 -0.03125 0.265625 -0.046875l0.328125 1.4062519q-0.15625 0.046875 -0.453125 0.109375q-0.28125 0.0625 -0.71875 0.0625q-0.65625 0 -1.296875 -0.28125q-0.625 -0.28125 -1.046875 -0.859375q-0.40625 -0.5937519 -0.40625 -1.4687519l0 -10.125zm10.256226 12.828127q-1.46875 0 -2.546875 -0.65625q-1.0625 -0.65625 -1.640625 -1.8281269q-0.5625 -1.171875 -0.5625 -2.75q0 -1.5625 0.5625 -2.75q0.578125 -1.203125 1.609375 -1.875q1.03125 -0.671875 2.40625 -0.671875q0.796875 0 1.578125 0.265625q0.78125 0.265625 1.40625 0.859375q0.640625 0.59375 1.015625 1.578125q0.375 0.96875 0.375 2.390625l0 0.65625l-7.84375 0l0 -1.34375l6.265625 0q0 -0.859375 -0.34375 -1.53125q-0.34375 -0.6875 -0.96875 -1.078125q-0.625 -0.390625 -1.484375 -0.390625q-0.921875 0 -1.609375 0.46875q-0.671875 0.453125 -1.046875 1.1875q-0.359375 0.734375 -0.359375 1.578125l0 0.90625q0 1.140625 0.390625 1.953125q0.40625 0.796875 1.125 1.21875q0.71875 0.40625 1.671875 0.40625q0.609375 0 1.109375 -0.171875q0.5 -0.1875 0.859375 -0.53125q0.375 -0.359375 0.5625 -0.890625l1.515625 0.421875q-0.234375 0.765625 -0.796875 1.3437519q-0.5625 0.578125 -1.390625 0.90625q-0.828125 0.328125 -1.859375 0.328125z" fill-rule="nonzero"/><path fill="#0d2243" d="m772.09753 55.140472l0 -13.5625l4.75 0q1.40625 0 2.328125 0.484375q0.921875 0.484375 1.375 1.3125q0.453125 0.8125 0.453125 1.796875q0 0.875 -0.3125 1.453125q-0.296875 0.5625 -0.796875 0.90625q-0.5 0.328125 -1.09375 0.484375l0 0.125q0.625 0.046875 1.25 0.453125q0.640625 0.390625 1.0625 1.140625q0.421875 0.734375 0.421875 1.796875q0 1.03125 -0.46875 1.84375q-0.453125 0.8125 -1.453125 1.296875q-1.0 0.46875 -2.609375 0.46875l-4.90625 0zm1.640625 -1.453125l3.265625 0q1.609375 0 2.28125 -0.625q0.6875 -0.625 0.6875 -1.53125q0 -0.6875 -0.359375 -1.265625q-0.34375 -0.59375 -1.0 -0.9375q-0.640625 -0.359375 -1.53125 -0.359375l-3.34375 0l0 4.71875zm0 -6.15625l3.046875 0q0.75 0 1.34375 -0.28125q0.609375 -0.296875 0.953125 -0.828125q0.359375 -0.53125 0.359375 -1.25q0 -0.890625 -0.625 -1.515625q-0.625 -0.625 -1.96875 -0.625l-3.109375 0l0 4.5zm13.277954 7.84375q-0.96875 0 -1.765625 -0.359375q-0.78125 -0.375 -1.25 -1.0625q-0.453125 -0.703125 -0.453125 -1.703125q0 -0.875 0.34375 -1.421875q0.34375 -0.546875 0.921875 -0.859375q0.578125 -0.3125 1.265625 -0.46875q0.703125 -0.15625 1.421875 -0.25q0.921875 -0.109375 1.5 -0.171875q0.578125 -0.0625 0.84375 -0.21875q0.28125 -0.15625 0.28125 -0.53125l0 -0.046875q0 -0.984375 -0.546875 -1.53125q-0.53125 -0.546875 -1.609375 -0.546875q-1.109375 0 -1.75 0.5q-0.640625 0.484375 -0.890625 1.046875l-1.484375 -0.53125q0.390625 -0.921875 1.046875 -1.4375q0.671875 -0.53125 1.46875 -0.734375q0.796875 -0.21875 1.5625 -0.21875q0.484375 0 1.125 0.125q0.640625 0.109375 1.234375 0.46875q0.609375 0.359375 1.0 1.078125q0.40625 0.71875 0.40625 1.9375l0 6.703125l-1.5625 0l0 -1.375l-0.078125 0q-0.171875 0.328125 -0.546875 0.703125q-0.359375 0.375 -0.984375 0.640625q-0.609375 0.265625 -1.5 0.265625zm0.25 -1.40625q0.921875 0 1.5625 -0.359375q0.640625 -0.359375 0.96875 -0.9375q0.328125 -0.578125 0.328125 -1.21875l0 -1.421875q-0.109375 0.109375 -0.453125 0.21875q-0.328125 0.09375 -0.765625 0.15625q-0.421875 0.0625 -0.828125 0.125q-0.40625 0.046875 -0.65625 0.078125q-0.609375 0.078125 -1.140625 0.265625q-0.53125 0.171875 -0.859375 0.515625q-0.3125 0.34375 -0.3125 0.9375q0 0.8125 0.609375 1.234375q0.609375 0.40625 1.546875 0.40625zm11.411438 1.390625q-1.421875 0 -2.46875 -0.671875q-1.03125 -0.6875 -1.59375 -1.875q-0.546875 -1.1875 -0.546875 -2.703125q0 -1.546875 0.5625 -2.734375q0.578125 -1.203125 1.609375 -1.875q1.03125 -0.671875 2.40625 -0.671875q1.078125 0 1.9375 0.40625q0.859375 0.390625 1.40625 1.109375q0.5625 0.71875 0.6875 1.671875l-1.5625 0q-0.171875 -0.703125 -0.796875 -1.234375q-0.609375 -0.546875 -1.640625 -0.546875q-0.90625 0 -1.59375 0.484375q-0.6875 0.46875 -1.078125 1.328125q-0.375 0.859375 -0.375 2.0q0 1.1875 0.375 2.0625q0.375 0.875 1.0625 1.359375q0.6875 0.484375 1.609375 0.484375q0.609375 0 1.109375 -0.203125q0.5 -0.21875 0.84375 -0.609375q0.34375 -0.40625 0.484375 -0.96875l1.5625 0q-0.125 0.90625 -0.65625 1.625q-0.515625 0.71875 -1.375 1.140625q-0.84375 0.421875 -1.96875 0.421875zm7.742859 -3.921875l-0.03125 -1.9375l0.328125 0l4.4375 -4.53125l1.9375 0l-4.734375 4.796875l-0.140625 0l-1.796875 1.671875zm-1.453125 3.703125l0 -13.5625l1.5625 0l0 13.5625l-1.5625 0zm6.453125 0l-3.96875 -5.03125l1.109375 -1.09375l4.859375 6.125l-2.0 0z" fill-rule="nonzero"/><path fill="#0d2243" d="m772.37506 70.359215q0 -2.515625 0.65625 -4.609375q0.65625 -2.1093712 1.859375 -3.8749962l1.390625 0q-0.484375 0.65625 -0.90625 1.609375q-0.40625 0.9531212 -0.71875 2.1093712q-0.3125 1.140625 -0.484375 2.359375q-0.171875 1.21875 -0.171875 2.40625q0 1.578125 0.296875 3.203125q0.3125 1.609375 0.828125 3.0q0.515625 1.390625 1.15625 2.265625l-1.390625 0q-1.203125 -1.765625 -1.859375 -3.859375q-0.65625 -2.109375 -0.65625 -4.609375zm8.882629 6.78125l-3.71875 -13.562496l1.671875 0l2.84375 11.046871l0.125 0l2.890625 -11.046871l1.859375 0l2.890625 11.046871l0.125 0l2.84375 -11.046871l1.671875 0l-3.71875 13.562496l-1.6875 0l-3.0 -10.8125l-0.109375 0l-3.0 10.8125l-1.6875 0zm15.233765 0l0 -13.562496l4.75 0q1.40625 0 2.328125 0.4843712q0.921875 0.484375 1.375 1.3125q0.453125 0.8125 0.453125 1.796875q0 0.875 -0.3125 1.453125q-0.296875 0.5625 -0.796875 0.90625q-0.5 0.328125 -1.09375 0.484375l0 0.125q0.625 0.046875 1.25 0.453125q0.640625 0.390625 1.0625 1.140625q0.421875 0.734375 0.421875 1.796875q0 1.03125 -0.46875 1.84375q-0.453125 0.8125 -1.453125 1.296875q-1.0 0.46875 -2.609375 0.46875l-4.90625 0zm1.640625 -1.453125l3.265625 0q1.609375 0 2.28125 -0.625q0.6875 -0.625 0.6875 -1.53125q0 -0.6875 -0.359375 -1.265625q-0.34375 -0.59375 -1.0 -0.9375q-0.640625 -0.359375 -1.53125 -0.359375l-3.34375 0l0 4.71875zm0 -6.15625l3.046875 0q0.75 0 1.34375 -0.28125q0.609375 -0.296875 0.953125 -0.828125q0.359375 -0.53125 0.359375 -1.25q0 -0.890625 -0.625 -1.515625q-0.625 -0.625 -1.96875 -0.625l-3.109375 0l0 4.5zm13.621704 0.828125q0 2.5 -0.65625 4.609375q-0.640625 2.09375 -1.859375 3.859375l-1.375 0q0.46875 -0.65625 0.875 -1.609375q0.421875 -0.953125 0.734375 -2.09375q0.3125 -1.140625 0.484375 -2.359375q0.1875 -1.234375 0.1875 -2.40625q0 -1.578125 -0.3125 -3.203125q-0.296875 -1.625 -0.8125 -3.015625q-0.515625 -1.3906212 -1.15625 -2.2656212l1.375 0q1.21875 1.765625 1.859375 3.8749962q0.65625 2.09375 0.65625 4.609375z" fill-rule="nonzero"/><path fill="#0a1b36" d="m745.9568 342.3098l0 12.4409485l-35.77948 0l0 -12.4409485z" fill-rule="evenodd"/><path fill="#0a1b36" d="m718.3348 30.332022l12.440918 0l0 35.779526l-12.440918 0z" fill-rule="evenodd"/><path fill="#0a1b36" d="m636.58026 30.332022l12.440979 0l0 35.779526l-12.440979 0z" fill-rule="evenodd"/><path fill="#0a1b36" d="m86.73109 183.20604l12.4409485 0l0 35.779526l-12.4409485 0z" fill-rule="evenodd"/><path fill="#000000" fill-opacity="0.0" d="m221.35957 199.56036l77.41734 0" fill-rule="evenodd"/><path stroke="#0d2243" stroke-width="3.0" stroke-linejoin="round" stroke-linecap="butt" d="m221.35957 199.56036l59.417343 0" fill-rule="evenodd"/><path fill="#0d2243" stroke="#0d2243" stroke-width="3.0" stroke-linecap="butt" d="m280.77692 204.51556l13.614288 -4.9552l-13.614288 -4.9552z" fill-rule="evenodd"/><path fill="#000000" fill-opacity="0.0" d="m421.2651 183.20604l56.86078 0l0 -134.99213l36.65103 0" fill-rule="evenodd"/><path stroke="#0d2243" stroke-width="3.0" stroke-linejoin="round" stroke-linecap="butt" d="m421.2651 183.20604l56.86081 0l0 -134.99213l18.651001 0" fill-rule="evenodd"/><path fill="#0d2243" stroke="#0d2243" stroke-width="3.0" stroke-linecap="butt" d="m496.77692 53.16911l13.614288 -4.9552l-13.614288 -4.9551964z" fill-rule="evenodd"/><path fill="#000000" fill-opacity="0.0" d="m421.3596 215.56036l93.921234 0" fill-rule="evenodd"/><path stroke="#0d2243" stroke-width="3.0" stroke-linejoin="round" stroke-linecap="butt" d="m421.3596 215.56036l75.921265 0" fill-rule="evenodd"/><path fill="#0d2243" stroke="#0d2243" stroke-width="3.0" stroke-linecap="butt" d="m497.28085 220.51556l13.614288 -4.9552l-13.614288 -4.9552z" fill-rule="evenodd"/><path fill="#000000" fill-opacity="0.0" d="m576.06824 90.86614l0 66.04725" fill-rule="evenodd"/><path stroke="#0d2243" stroke-width="3.0" stroke-linejoin="round" stroke-linecap="butt" d="m576.06824 90.86614l0 48.04725" fill-rule="evenodd"/><path fill="#0d2243" stroke="#0d2243" stroke-width="3.0" stroke-linecap="butt" d="m571.11304 138.91339l4.9552 13.614288l4.9552 -13.614288z" fill-rule="evenodd"/><path fill="#000000" fill-opacity="0.0" d="m421.2651 215.93045l-123.40158 -16.362213l123.40158 -16.362198z" fill-rule="evenodd"/><path fill="#000000" fill-opacity="0.0" d="m576.06824 242.20604l0 57.85826l90.70868 0" fill-rule="evenodd"/><path stroke="#0d2243" stroke-width="3.0" stroke-linejoin="round" stroke-linecap="butt" d="m576.06824 242.20604l0 57.85826l72.70868 0" fill-rule="evenodd"/><path fill="#0d2243" stroke="#0d2243" stroke-width="3.0" stroke-linecap="butt" d="m648.7769 305.0195l13.614258 -4.9552l-13.614258 -4.9552z" fill-rule="evenodd"/><path fill="#000000" fill-opacity="0.0" d="m789.35956 300.05118l19.086609 0l0 -209.19684" fill-rule="evenodd"/><path stroke="#0d2243" stroke-width="3.0" stroke-linejoin="round" stroke-linecap="butt" d="m789.35956 300.05118l19.086609 0l0 -191.19684" fill-rule="evenodd"/><path fill="#0d2243" stroke="#0d2243" stroke-width="3.0" stroke-linecap="butt" d="m813.40137 108.85433l-4.9552 -13.614296l-4.9552 13.614296z" fill-rule="evenodd"/><path fill="#000000" fill-opacity="0.0" d="m637.35956 199.56036l138.36224 0l0 -108.69291" fill-rule="evenodd"/><path stroke="#0d2243" stroke-width="3.0" stroke-linejoin="round" stroke-linecap="butt" d="m637.35956 199.56036l138.36224 0l0 -90.69291" fill-rule="evenodd"/><path fill="#0d2243" stroke="#0d2243" stroke-width="3.0" stroke-linecap="butt" d="m780.677 108.867455l-4.9552 -13.614296l-4.9552 13.614296z" fill-rule="evenodd"/><path fill="#000000" fill-opacity="0.0" d="m775.70605 90.867455l16.362183 -85.291336l16.362183 85.291336z" fill-rule="evenodd"/><path fill="#0d2243" d="m571.8163 300.05118l0 0c0 -2.348297 1.9036865 -4.251953 4.251953 -4.251953l0 0c1.1276855 0 2.2092285 0.44796753 3.0065918 1.2453613c0.7974243 0.7973938 1.2453613 1.8789062 1.2453613 3.0065918l0 0c0 2.348297 -1.9036255 4.2519836 -4.251953 4.2519836l0 0c-2.3482666 0 -4.251953 -1.9036865 -4.251953 -4.2519836z" fill-rule="evenodd"/><path fill="#000000" fill-opacity="0.0" d="m421.3596 299.9882l122.70865 0l0 0.06298828l122.70868 0" fill-rule="evenodd"/><path stroke="#0d2243" stroke-width="3.0" stroke-linejoin="round" stroke-linecap="butt" d="m439.3596 299.9882l104.70865 0l0 0.06298828l104.70868 0" fill-rule="evenodd"/><path fill="#0d2243" stroke="#0d2243" stroke-width="3.0" stroke-linecap="butt" d="m439.3596 295.033l-13.614288 4.9552l13.614288 4.9552z" fill-rule="evenodd"/><path fill="#0d2243" stroke="#0d2243" stroke-width="3.0" stroke-linecap="butt" d="m648.7769 305.00638l13.614258 -4.9552l-13.614258 -4.9552z" fill-rule="evenodd"/><path fill="#000000" fill-opacity="0.0" d="m160.06824 242.20604l0 57.85826l138.99213 0" fill-rule="evenodd"/><path stroke="#0d2243" stroke-width="3.0" stroke-linejoin="round" stroke-linecap="butt" d="m160.06824 260.20602l0 39.858276l138.99213 0" fill-rule="evenodd"/><path fill="#0d2243" stroke="#0d2243" stroke-width="3.0" stroke-linecap="butt" d="m165.02344 260.20602l-4.9552 -13.614273l-4.9552 13.614273z" fill-rule="evenodd"/><path fill="#0a1b36" d="m645.35956 18.479261l0 0c0 -7.126211 5.7769775 -12.903146 12.903137 -12.903146l51.611084 0l0 0c3.4221191 0 6.7040405 1.3594346 9.123901 3.7792435c2.4197998 2.4198093 3.7792358 5.7017746 3.7792358 9.123902l0 59.485046c0 7.126213 -5.7769775 12.903145 -12.903137 12.903145l-51.611084 0c-7.1261597 0 -12.903137 -5.776932 -12.903137 -12.903145z" fill-rule="evenodd"/><path fill="#ffffff" d="m676.1746 45.813656q-0.21875 -0.671875 -0.578125 -1.203125q-0.359375 -0.53125 -0.84375 -0.90625q-0.484375 -0.375 -1.109375 -0.578125q-0.609375 -0.203125 -1.34375 -0.203125q-1.203125 0 -2.1875 0.625q-0.984375 0.625 -1.578125 1.84375q-0.578125 1.203125 -0.578125 2.96875q0 1.765625 0.578125 2.984375q0.59375 1.203125 1.59375 1.828125q1.015625 0.625 2.28125 0.625q1.171875 0 2.0625 -0.5q0.890625 -0.515625 1.390625 -1.421875q0.5 -0.921875 0.5 -2.171875l0.5 0.109375l-4.078125 0l0 -1.453125l5.15625 0l0 1.453125q0 1.671875 -0.71875 2.921875q-0.703125 1.234375 -1.953125 1.921875q-1.25 0.671875 -2.859375 0.671875q-1.796875 0 -3.171875 -0.84375q-1.359375 -0.859375 -2.125 -2.421875q-0.75 -1.5625 -0.75 -3.703125q0 -1.609375 0.4375 -2.890625q0.4375 -1.296875 1.234375 -2.203125q0.796875 -0.90625 1.875 -1.390625q1.09375 -0.484375 2.390625 -0.484375q1.078125 0 2.0 0.328125q0.9375 0.3125 1.671875 0.90625q0.734375 0.578125 1.21875 1.390625q0.484375 0.8125 0.671875 1.796875l-1.6875 0zm4.5786133 9.328125l0 -13.5625l4.59375 0q1.59375 0 2.609375 0.578125q1.015625 0.5625 1.5 1.546875q0.5 0.96875 0.5 2.15625q0 1.203125 -0.5 2.1875q-0.484375 0.984375 -1.5 1.5625q-1.0 0.578125 -2.59375 0.578125l-3.28125 0l0 -1.453125l3.234375 0q1.09375 0 1.75 -0.375q0.671875 -0.390625 0.96875 -1.03125q0.296875 -0.640625 0.296875 -1.46875q0 -0.8125 -0.296875 -1.453125q-0.296875 -0.640625 -0.96875 -1.0q-0.671875 -0.375 -1.78125 -0.375l-2.890625 0l0 12.109375l-1.640625 0zm11.845825 0l0 -13.5625l4.59375 0q1.578125 0 2.59375 0.546875q1.03125 0.53125 1.515625 1.46875q0.5 0.9375 0.5 2.140625q0 1.203125 -0.5 2.125q-0.484375 0.921875 -1.5 1.453125q-1.015625 0.53125 -2.59375 0.53125l-3.703125 0l0 -1.484375l3.65625 0q1.078125 0 1.75 -0.3125q0.671875 -0.328125 0.96875 -0.90625q0.296875 -0.59375 0.296875 -1.40625q0 -0.8125 -0.3125 -1.421875q-0.296875 -0.609375 -0.96875 -0.9375q-0.65625 -0.34375 -1.765625 -0.34375l-2.890625 0l0 12.109375l-1.640625 0zm6.390625 -6.09375l3.34375 6.09375l-1.921875 0l-3.28125 -6.09375l1.859375 0z" fill-rule="nonzero"/><path fill="#0a1b36" d="m10.065617 42.47926l0 0c0 -7.1262093 5.7769346 -12.903145 12.903145 -12.903145l51.611034 0l0 0c3.4221268 0 6.704094 1.359436 9.123901 3.7792435c2.4198074 2.4198112 3.7792435 5.7017746 3.7792435 9.123901l0 314.16223c0 7.12619 -5.7769394 12.903137 -12.903145 12.903137l-51.611034 0c-7.12621 0 -12.903145 -5.776947 -12.903145 -12.903137z" fill-rule="evenodd"/><path fill="#ffffff" d="m27.423111 192.91786l0 13.5625l-1.640625 0l0 -13.5625l1.640625 0zm3.2885132 0l1.96875 0l4.609375 11.25l0.15625 0l4.609375 -11.25l1.96875 0l0 13.5625l-1.546875 0l0 -10.3125l-0.125 0l-4.25 10.3125l-1.484375 0l-4.234375 -10.3125l-0.125 0l0 10.3125l-1.546875 0l0 -13.5625zm16.589447 13.5625l0 -13.5625l8.1875 0l0 1.453125l-6.546875 0l0 4.578125l6.125 0l0 1.46875l-6.125 0l0 4.609375l6.65625 0l0 1.453125l-8.296875 0zm11.156799 -13.5625l1.96875 0l4.609375 11.25l0.15625 0l4.609375 -11.25l1.96875 0l0 13.5625l-1.546875 0l0 -10.3125l-0.125 0l-4.25 10.3125l-1.484375 0l-4.234375 -10.3125l-0.125 0l0 10.3125l-1.546875 0l0 -13.5625z" fill-rule="nonzero"/><path fill="#0a1b36" d="m559.1312 361.95688l0 0c0 -5.3258057 4.317444 -9.643219 9.6432495 -9.643219l318.60327 0c2.5575562 0 5.010376 1.0159607 6.8187866 2.8244324c1.8084717 1.8084412 2.824463 4.261261 2.824463 6.8187866l0 38.571808c0 5.3258057 -4.317444 9.643219 -9.6432495 9.643219l-318.60327 0c-5.3258057 0 -9.6432495 -4.3174133 -9.6432495 -9.643219z" fill-rule="evenodd"/><path fill="#ffffff" d="m705.0317 388.16278l-4.1875 0l0 -13.5625l4.375 0q1.96875 0 3.375 0.8125q1.40625 0.8125 2.15625 2.328125q0.75 1.5 0.75 3.609375q0 2.125 -0.765625 3.65625q-0.75 1.515625 -2.203125 2.34375q-1.4375 0.8125 -3.5 0.8125zm-2.546875 -1.453125l2.4375 0q1.6875 0 2.796875 -0.640625q1.109375 -0.65625 1.640625 -1.859375q0.546875 -1.203125 0.546875 -2.859375q0 -1.640625 -0.53125 -2.828125q-0.53125 -1.1875 -1.609375 -1.828125q-1.0625 -0.640625 -2.65625 -0.640625l-2.625 0l0 10.65625zm11.768738 -12.109375l1.96875 0l4.609375 11.25l0.15625 0l4.609375 -11.25l1.96875 0l0 13.5625l-1.546875 0l0 -10.3125l-0.125 0l-4.25 10.3125l-1.484375 0l-4.234375 -10.3125l-0.125 0l0 10.3125l-1.546875 0l0 -13.5625zm16.589478 13.5625l0 -13.5625l8.1875 0l0 1.453125l-6.546875 0l0 4.578125l6.125 0l0 1.46875l-6.125 0l0 4.609375l6.65625 0l0 1.453125l-8.296875 0zm11.156799 -13.5625l1.96875 0l4.609375 11.25l0.15625 0l4.609375 -11.25l1.96875 0l0 13.5625l-1.546875 0l0 -10.3125l-0.125 0l-4.25 10.3125l-1.484375 0l-4.234375 -10.3125l-0.125 0l0 10.3125l-1.546875 0l0 -13.5625z" fill-rule="nonzero"/><path fill="#c7d3e6" d="m237.35957 162.59186l31.307083 0l0 73.95276l-31.307083 0z" fill-rule="evenodd"/><path stroke="#0d2243" stroke-width="2.0" stroke-miterlimit="800.0" stroke-linecap="butt" d="m237.35957 162.59186l31.307083 0l0 73.95276l-31.307083 0z" fill-rule="evenodd"/><path fill="#0d2243" d="m248.462 206.76823l0 -1.28125l4.8125 -5.25q0.84375 -0.921875 1.390625 -1.609375q0.546875 -0.6875 0.8125 -1.296875q0.265625 -0.609375 0.265625 -1.265625q0 -0.78125 -0.375 -1.328125q-0.359375 -0.5625 -1.0 -0.859375q-0.625 -0.3125 -1.40625 -0.3125q-0.84375 0 -1.46875 0.34375q-0.625 0.34375 -0.96875 0.96875q-0.328125 0.609375 -0.328125 1.4375l-1.671875 0q0 -1.28125 0.578125 -2.25q0.59375 -0.96875 1.609375 -1.5q1.03125 -0.546875 2.296875 -0.546875q1.28125 0 2.265625 0.546875q0.984375 0.53125 1.546875 1.453125q0.5625 0.921875 0.5625 2.046875q0 0.796875 -0.296875 1.5625q-0.28125 0.765625 -0.984375 1.703125q-0.703125 0.921875 -1.953125 2.265625l-3.265625 3.5l0 0.109375l6.765625 0l0 1.5625l-9.1875 0z" fill-rule="nonzero"/><path fill="#000000" fill-opacity="0.0" d="m237.35982 219.72073l9.6666565 6.6662292l-9.6666565 6.551285" fill-rule="evenodd"/><path stroke="#0d2243" stroke-width="2.0" stroke-linejoin="round" stroke-linecap="butt" d="m237.35982 219.72073l9.6666565 6.6662292l-9.6666565 6.551285" fill-rule="evenodd"/><path fill="#c7d3e6" d="m436.96326 162.58398l31.307098 0l0 73.95276l-31.307098 0z" fill-rule="evenodd"/><path stroke="#0d2243" stroke-width="2.0" stroke-miterlimit="800.0" stroke-linecap="butt" d="m436.96326 162.58398l31.307098 0l0 73.95276l-31.307098 0z" fill-rule="evenodd"/><path fill="#0d2243" d="m452.67505 206.96349q-1.40625 0 -2.515625 -0.484375q-1.09375 -0.484375 -1.734375 -1.34375q-0.640625 -0.875 -0.6875 -2.015625l1.78125 0q0.0625 0.703125 0.484375 1.21875q0.421875 0.5 1.109375 0.78125q0.6875 0.28125 1.53125 0.28125q0.9375 0 1.65625 -0.328125q0.734375 -0.328125 1.140625 -0.90625q0.421875 -0.59375 0.421875 -1.359375q0 -0.796875 -0.40625 -1.40625q-0.390625 -0.625 -1.171875 -0.96875q-0.765625 -0.34375 -1.859375 -0.34375l-1.171875 0l0 -1.5625l1.171875 0q0.859375 0 1.515625 -0.3125q0.65625 -0.3125 1.03125 -0.875q0.375 -0.578125 0.375 -1.34375q0 -0.734375 -0.328125 -1.28125q-0.328125 -0.546875 -0.921875 -0.84375q-0.59375 -0.3125 -1.390625 -0.3125q-0.75 0 -1.421875 0.28125q-0.65625 0.265625 -1.078125 0.78125q-0.421875 0.5 -0.453125 1.234375l-1.703125 0q0.03125 -1.140625 0.671875 -2.0q0.65625 -0.875 1.703125 -1.359375q1.046875 -0.484375 2.3125 -0.484375q1.34375 0 2.3125 0.546875q0.96875 0.546875 1.484375 1.4375q0.515625 0.890625 0.515625 1.90625q0 1.234375 -0.640625 2.109375q-0.640625 0.859375 -1.75 1.1875l0 0.125q1.375 0.21875 2.140625 1.171875q0.78125 0.9375 0.78125 2.3125q0 1.1875 -0.640625 2.140625q-0.640625 0.9375 -1.75 1.484375q-1.109375 0.53125 -2.515625 0.53125z" fill-rule="nonzero"/><path fill="#000000" fill-opacity="0.0" d="m436.9635 220.58807l9.6666565 6.666214l-9.6666565 6.5513" fill-rule="evenodd"/><path stroke="#0d2243" stroke-width="2.0" stroke-linejoin="round" stroke-linecap="butt" d="m436.9635 220.58807l9.6666565 6.666214l-9.6666565 6.5513" fill-rule="evenodd"/><path fill="#c7d3e6" d="m270.08792 263.0748l-31.307083 0l0 73.95276l31.307083 0z" fill-rule="evenodd"/><path stroke="#0d2243" stroke-width="2.0" stroke-miterlimit="800.0" stroke-linecap="butt" d="m270.08792 263.0748l-31.307083 0l0 73.95276l31.307083 0z" fill-rule="evenodd"/><path fill="#0d2243" d="m256.41452 292.7043l0 14.546875l-1.7656403 0l0 -12.703125l-0.09375 0l-3.546875 2.359375l0 -1.78125l3.640625 -2.421875l1.7656403 0z" fill-rule="nonzero"/><path fill="#000000" fill-opacity="0.0" d="m270.0877 321.0789l-9.666687 6.6662292l9.666687 6.5512695" fill-rule="evenodd"/><path stroke="#0d2243" stroke-width="2.0" stroke-linejoin="round" stroke-linecap="butt" d="m270.0877 321.0789l-9.666687 6.6662292l9.666687 6.5512695" fill-rule="evenodd"/><path fill="#c7d3e6" d="m528.5512 263.0748l31.307068 0l0 73.95276l-31.307068 0z" fill-rule="evenodd"/><path stroke="#0d2243" stroke-width="2.0" stroke-miterlimit="800.0" stroke-linecap="butt" d="m528.5512 263.0748l31.307068 0l0 73.95276l-31.307068 0z" fill-rule="evenodd"/><path fill="#0d2243" d="m544.29706 307.4543q-0.890625 -0.015625 -1.78125 -0.34375q-0.890625 -0.328125 -1.640625 -1.109375q-0.734375 -0.78125 -1.1875 -2.109375q-0.4375 -1.328125 -0.4375 -3.34375q0 -1.9375 0.359375 -3.421875q0.359375 -1.5 1.046875 -2.515625q0.6875 -1.03125 1.65625 -1.5625q0.984375 -0.546875 2.21875 -0.546875q1.21875 0 2.171875 0.5q0.953125 0.484375 1.5625 1.359375q0.609375 0.859375 0.78125 1.984375l-1.734375 0q-0.234375 -0.984375 -0.9375 -1.625q-0.6875 -0.65625 -1.84375 -0.65625q-1.6875 0 -2.65625 1.484375q-0.96875 1.46875 -0.984375 4.125l0.125 0q0.390625 -0.609375 0.9375 -1.03125q0.546875 -0.4375 1.21875 -0.671875q0.671875 -0.234375 1.421875 -0.234375q1.25 0 2.28125 0.625q1.03125 0.609375 1.65625 1.703125q0.625 1.09375 0.625 2.5q0 1.34375 -0.609375 2.46875q-0.59375 1.125 -1.6875 1.78125q-1.078125 0.65625 -2.5625 0.640625zm0 -1.5625q0.90625 0 1.609375 -0.453125q0.71875 -0.453125 1.125 -1.203125q0.421875 -0.75 0.421875 -1.671875q0 -0.90625 -0.40625 -1.640625q-0.390625 -0.75 -1.09375 -1.1875q-0.703125 -0.4375 -1.59375 -0.4375q-0.671875 0 -1.265625 0.265625q-0.578125 0.265625 -1.015625 0.734375q-0.4375 0.453125 -0.6875 1.046875q-0.234375 0.59375 -0.234375 1.25q0 0.859375 0.40625 1.625q0.40625 0.75 1.109375 1.21875q0.71875 0.453125 1.625 0.453125z" fill-rule="nonzero"/><path fill="#000000" fill-opacity="0.0" d="m559.85803 321.0789l-9.666687 6.6662292l9.666687 6.5512695" fill-rule="evenodd"/><path stroke="#0d2243" stroke-width="2.0" stroke-linejoin="round" stroke-linecap="butt" d="m559.85803 321.0789l-9.666687 6.6662292l9.666687 6.5512695" fill-rule="evenodd"/><path fill="#c7d3e6" d="m597.66406 263.0748l31.307068 0l0 73.95276l-31.307068 0z" fill-rule="evenodd"/><path stroke="#0d2243" stroke-width="2.0" stroke-miterlimit="800.0" stroke-linecap="butt" d="m597.66406 263.0748l31.307068 0l0 73.95276l-31.307068 0z" fill-rule="evenodd"/><path fill="#0d2243" d="m613.2849 307.4543q-1.25 0 -2.25 -0.5q-1.0 -0.5 -1.609375 -1.359375q-0.59375 -0.875 -0.65625 -1.984375l1.703125 0q0.109375 0.984375 0.90625 1.640625q0.796875 0.640625 1.90625 0.640625q0.90625 0 1.59375 -0.421875q0.703125 -0.421875 1.09375 -1.15625q0.40625 -0.734375 0.40625 -1.671875q0 -0.9375 -0.421875 -1.6875q-0.40625 -0.75 -1.125 -1.1875q-0.71875 -0.4375 -1.65625 -0.4375q-0.671875 -0.015625 -1.375 0.203125q-0.703125 0.203125 -1.15625 0.53125l-1.640625 -0.203125l0.875 -7.15625l7.5625 0l0 1.5625l-6.078125 0l-0.515625 4.296875l0.078125 0q0.453125 -0.359375 1.125 -0.59375q0.671875 -0.234375 1.40625 -0.234375q1.34375 0 2.390625 0.640625q1.046875 0.625 1.640625 1.734375q0.609375 1.09375 0.609375 2.515625q0 1.390625 -0.625 2.484375q-0.625 1.078125 -1.71875 1.71875q-1.078125 0.625 -2.46875 0.625z" fill-rule="nonzero"/><path fill="#000000" fill-opacity="0.0" d="m597.66425 321.0789l9.666687 6.6662292l-9.666687 6.5512695" fill-rule="evenodd"/><path stroke="#0d2243" stroke-width="2.0" stroke-linejoin="round" stroke-linecap="butt" d="m597.66425 321.0789l9.666687 6.6662292l-9.666687 6.5512695" fill-rule="evenodd"/><path fill="#c7d3e6" d="m98.7769 171.1302l0 0c0 -7.851013 6.364502 -14.2155 14.2155075 -14.2155l94.151665 0c3.7701874 0 7.385956 1.4976959 10.05188 4.16362c2.665924 2.665924 4.16362 6.2816925 4.16362 10.05188l0 56.86032c0 7.851013 -6.3644867 14.215515 -14.2155 14.215515l-94.151665 0c-7.8510056 0 -14.2155075 -6.364502 -14.2155075 -14.215515z" fill-rule="evenodd"/><path fill="#0d2243" d="m116.429985 170.91786l0 13.5625l-1.640625 0l0 -13.5625l1.640625 0zm4.647888 7.4375l0 6.125l-1.5625 0l0 -10.171875l1.5 0l0 1.578125l0.140625 0q0.359375 -0.765625 1.078125 -1.234375q0.734375 -0.484375 1.890625 -0.484375q1.03125 0 1.796875 0.421875q0.78125 0.421875 1.203125 1.28125q0.4375 0.84375 0.4375 2.140625l0 6.46875l-1.5625 0l0 -6.359375q0 -1.203125 -0.625 -1.875q-0.625 -0.671875 -1.703125 -0.671875q-0.75 0 -1.34375 0.328125q-0.578125 0.328125 -0.921875 0.953125q-0.328125 0.609375 -0.328125 1.5zm16.558922 -1.765625l-1.40625 0.390625q-0.125 -0.34375 -0.390625 -0.671875q-0.25 -0.34375 -0.6875 -0.5625q-0.4375 -0.21875 -1.125 -0.21875q-0.9375 0 -1.5625 0.421875q-0.609375 0.421875 -0.609375 1.078125q0 0.59375 0.421875 0.9375q0.421875 0.328125 1.328125 0.546875l1.515625 0.375q1.359375 0.328125 2.03125 1.015625q0.671875 0.671875 0.671875 1.75q0 0.859375 -0.5 1.5625q-0.5 0.6875 -1.40625 1.09375q-0.890625 0.390625 -2.078125 0.390625q-1.546875 0 -2.578125 -0.671875q-1.015625 -0.6875 -1.28125 -1.984375l1.484375 -0.375q0.203125 0.828125 0.796875 1.234375q0.59375 0.40625 1.5625 0.40625q1.09375 0 1.734375 -0.453125q0.640625 -0.46875 0.640625 -1.125q0 -0.53125 -0.375 -0.890625q-0.359375 -0.375 -1.125 -0.546875l-1.703125 -0.390625q-1.390625 -0.34375 -2.046875 -1.03125q-0.65625 -0.703125 -0.65625 -1.765625q0 -0.859375 0.484375 -1.515625q0.484375 -0.65625 1.328125 -1.03125q0.859375 -0.390625 1.921875 -0.390625q1.515625 0 2.375 0.671875q0.875 0.65625 1.234375 1.75zm6.9710083 -2.28125l0 1.328125l-5.28125 0l0 -1.328125l5.28125 0zm-3.734375 -2.4375l1.5625 0l0 9.6875q0 0.671875 0.1875 1.0q0.203125 0.328125 0.5 0.4375q0.3125 0.109375 0.65625 0.109375q0.265625 0 0.421875 -0.03125q0.171875 -0.03125 0.265625 -0.046875l0.328125 1.40625q-0.15625 0.046875 -0.453125 0.109375q-0.28125 0.0625 -0.71875 0.0625q-0.65625 0 -1.296875 -0.28125q-0.625 -0.28125 -1.046875 -0.859375q-0.40625 -0.59375 -0.40625 -1.46875l0 -10.125zm6.0966797 12.609375l0 -10.171875l1.5 0l0 1.53125l0.109375 0q0.28125 -0.75 1.0 -1.21875q0.734375 -0.46875 1.65625 -0.46875q0.171875 0 0.421875 0q0.265625 0 0.390625 0.015625l0 1.59375q-0.078125 -0.015625 -0.359375 -0.0625q-0.28125 -0.046875 -0.59375 -0.046875q-0.734375 0 -1.328125 0.3125q-0.578125 0.3125 -0.90625 0.859375q-0.328125 0.53125 -0.328125 1.21875l0 6.4375l-1.5625 0zm13.349442 -4.15625l0 -6.015625l1.5625 0l0 10.171875l-1.5625 0l0 -1.71875l-0.109375 0q-0.359375 0.765625 -1.109375 1.3125q-0.75 0.53125 -1.90625 0.53125q-0.953125 0 -1.703125 -0.40625q-0.734375 -0.421875 -1.15625 -1.265625q-0.421875 -0.859375 -0.421875 -2.15625l0 -6.46875l1.5625 0l0 6.359375q0 1.109375 0.625 1.78125q0.625 0.65625 1.59375 0.65625q0.578125 0 1.1875 -0.296875q0.609375 -0.296875 1.015625 -0.90625q0.421875 -0.625 0.421875 -1.578125zm8.557526 4.375q-1.421875 0 -2.4687347 -0.671875q-1.03125 -0.6875 -1.59375 -1.875q-0.546875 -1.1875 -0.546875 -2.703125q0 -1.546875 0.5625 -2.734375q0.578125 -1.203125 1.609375 -1.875q1.0312347 -0.671875 2.4062347 -0.671875q1.078125 0 1.9375 0.40625q0.859375 0.390625 1.40625 1.109375q0.5625 0.71875 0.6875 1.671875l-1.5625 0q-0.171875 -0.703125 -0.796875 -1.234375q-0.609375 -0.546875 -1.640625 -0.546875q-0.90625 0 -1.59375 0.484375q-0.68748474 0.46875 -1.0781097 1.328125q-0.375 0.859375 -0.375 2.0q0 1.1875 0.375 2.0625q0.375 0.875 1.0624847 1.359375q0.6875 0.484375 1.609375 0.484375q0.609375 0 1.109375 -0.203125q0.5 -0.21875 0.84375 -0.609375q0.34375 -0.40625 0.484375 -0.96875l1.5625 0q-0.125 0.90625 -0.65625 1.625q-0.515625 0.71875 -1.375 1.140625q-0.84375 0.421875 -1.96875 0.421875zm10.711655 -10.390625l0 1.328125l-5.28125 0l0 -1.328125l5.28125 0zm-3.734375 -2.4375l1.5625 0l0 9.6875q0 0.671875 0.1875 1.0q0.203125 0.328125 0.5 0.4375q0.3125 0.109375 0.65625 0.109375q0.265625 0 0.421875 -0.03125q0.171875 -0.03125 0.265625 -0.046875l0.328125 1.40625q-0.15625 0.046875 -0.453125 0.109375q-0.28125 0.0625 -0.71875 0.0625q-0.65625 0 -1.296875 -0.28125q-0.625 -0.28125 -1.046875 -0.859375q-0.40625 -0.59375 -0.40625 -1.46875l0 -10.125zm6.0966797 12.609375l0 -10.171875l1.5625 0l0 10.171875l-1.5625 0zm0.78125 -11.875q-0.453125 0 -0.78125 -0.3125q-0.328125 -0.3125 -0.328125 -0.75q0 -0.4375 0.328125 -0.75q0.328125 -0.3125 0.78125 -0.3125q0.46875 0 0.796875 0.3125q0.328125 0.3125 0.328125 0.75q0 0.4375 -0.328125 0.75q-0.328125 0.3125 -0.796875 0.3125zm7.7693634 12.09375q-1.375 0 -2.421875 -0.65625q-1.03125 -0.65625 -1.609375 -1.828125q-0.578125 -1.1875 -0.578125 -2.765625q0 -1.59375 0.578125 -2.78125q0.578125 -1.1875 1.609375 -1.84375q1.046875 -0.65625 2.421875 -0.65625q1.375 0 2.40625 0.65625q1.046875 0.65625 1.625 1.84375q0.578125 1.1875 0.578125 2.78125q0 1.578125 -0.578125 2.765625q-0.578125 1.171875 -1.625 1.828125q-1.03125 0.65625 -2.40625 0.65625zm0 -1.40625q1.046875 0 1.71875 -0.53125q0.6875 -0.546875 1.0 -1.421875q0.328125 -0.875 0.328125 -1.890625q0 -1.03125 -0.328125 -1.90625q-0.3125 -0.875 -1.0 -1.421875q-0.671875 -0.546875 -1.71875 -0.546875q-1.046875 0 -1.71875 0.546875q-0.671875 0.546875 -1.0 1.421875q-0.328125 0.875 -0.328125 1.90625q0 1.015625 0.328125 1.890625q0.328125 0.875 1.0 1.421875q0.671875 0.53125 1.71875 0.53125zm8.567795 -4.9375l0 6.125l-1.5625 0l0 -10.171875l1.5 0l0 1.578125l0.140625 0q0.359375 -0.765625 1.078125 -1.234375q0.734375 -0.484375 1.890625 -0.484375q1.03125 0 1.796875 0.421875q0.78125 0.421875 1.203125 1.28125q0.4375 0.84375 0.4375 2.140625l0 6.46875l-1.5625 0l0 -6.359375q0 -1.203125 -0.625 -1.875q-0.625 -0.671875 -1.703125 -0.671875q-0.75 0 -1.34375 0.328125q-0.578125 0.328125 -0.921875 0.953125q-0.328125 0.609375 -0.328125 1.5z" fill-rule="nonzero"/><path fill="#0d2243" d="m137.11644 206.48036l0 -13.5625l8.140625 0l0 1.453125l-6.5 0l0 4.578125l5.890625 0l0 1.46875l-5.890625 0l0 6.0625l-1.640625 0zm14.264877 0.21875q-1.46875 0 -2.546875 -0.65625q-1.0625 -0.65625 -1.640625 -1.828125q-0.5625 -1.171875 -0.5625 -2.75q0 -1.5625 0.5625 -2.75q0.578125 -1.203125 1.609375 -1.875q1.03125 -0.671875 2.40625 -0.671875q0.796875 0 1.578125 0.265625q0.78125 0.265625 1.40625 0.859375q0.640625 0.59375 1.015625 1.578125q0.375 0.96875 0.375 2.390625l0 0.65625l-7.84375 0l0 -1.34375l6.265625 0q0 -0.859375 -0.34375 -1.53125q-0.34375 -0.6875 -0.96875 -1.078125q-0.625 -0.390625 -1.484375 -0.390625q-0.921875 0 -1.609375 0.46875q-0.671875 0.453125 -1.046875 1.1875q-0.359375 0.734375 -0.359375 1.578125l0 0.90625q0 1.140625 0.390625 1.953125q0.40625 0.796875 1.125 1.21875q0.71875 0.40625 1.671875 0.40625q0.609375 0 1.109375 -0.171875q0.5 -0.1875 0.859375 -0.53125q0.375 -0.359375 0.5625 -0.890625l1.515625 0.421875q-0.234375 0.765625 -0.796875 1.34375q-0.5625 0.578125 -1.390625 0.90625q-0.828125 0.328125 -1.859375 0.328125zm11.021545 -10.390625l0 1.328125l-5.28125 0l0 -1.328125l5.28125 0zm-3.734375 -2.4375l1.5625 0l0 9.6875q0 0.671875 0.1875 1.0q0.203125 0.328125 0.5 0.4375q0.3125 0.109375 0.65625 0.109375q0.265625 0 0.421875 -0.03125q0.171875 -0.03125 0.265625 -0.046875l0.328125 1.40625q-0.15625 0.046875 -0.453125 0.109375q-0.28125 0.0625 -0.71875 0.0625q-0.65625 0 -1.296875 -0.28125q-0.625 -0.28125 -1.046875 -0.859375q-0.40625 -0.59375 -0.40625 -1.46875l0 -10.125zm10.115601 12.828125q-1.421875 0 -2.4687347 -0.671875q-1.03125 -0.6875 -1.59375 -1.875q-0.546875 -1.1875 -0.546875 -2.703125q0 -1.546875 0.5625 -2.734375q0.578125 -1.203125 1.609375 -1.875q1.0312347 -0.671875 2.4062347 -0.671875q1.078125 0 1.9375 0.40625q0.859375 0.390625 1.40625 1.109375q0.5625 0.71875 0.6875 1.671875l-1.5625 0q-0.171875 -0.703125 -0.796875 -1.234375q-0.609375 -0.546875 -1.640625 -0.546875q-0.90625 0 -1.59375 0.484375q-0.68748474 0.46875 -1.0781097 1.328125q-0.375 0.859375 -0.375 2.0q0 1.1875 0.375 2.0625q0.375 0.875 1.0624847 1.359375q0.6875 0.484375 1.609375 0.484375q0.609375 0 1.109375 -0.203125q0.5 -0.21875 0.84375 -0.609375q0.34375 -0.40625 0.484375 -0.96875l1.5625 0q-0.125 0.90625 -0.65625 1.625q-0.515625 0.71875 -1.375 1.140625q-0.84375 0.421875 -1.96875 0.421875zm7.8522797 -6.34375l0 6.125l-1.5625 0l0 -13.5625l1.5625 0l0 4.96875l0.125 0q0.359375 -0.78125 1.078125 -1.25q0.71875 -0.46875 1.921875 -0.46875q1.03125 0 1.8125 0.421875q0.78125 0.40625 1.21875 1.265625q0.4375 0.84375 0.4375 2.15625l0 6.46875l-1.5625 0l0 -6.359375q0 -1.21875 -0.625 -1.875q-0.625 -0.671875 -1.734375 -0.671875q-0.765625 0 -1.375 0.328125q-0.609375 0.328125 -0.953125 0.953125q-0.34375 0.609375 -0.34375 1.5z" fill-rule="nonzero"/><path fill="#0d2243" d="m147.35797 221.69911q0 -2.515625 0.65625 -4.609375q0.65625 -2.109375 1.859375 -3.875l1.390625 0q-0.484375 0.65625 -0.90625 1.609375q-0.40625 0.953125 -0.71875 2.109375q-0.3125 1.140625 -0.484375 2.359375q-0.171875 1.21875 -0.171875 2.40625q0 1.578125 0.296875 3.203125q0.3125 1.609375 0.828125 3.0q0.515625 1.390625 1.15625 2.265625l-1.390625 0q-1.203125 -1.765625 -1.859375 -3.859375q-0.65625 -2.109375 -0.65625 -4.609375zm8.05455 -6.78125l0 13.5625l-1.640625 0l0 -13.5625l1.640625 0zm3.2885132 13.5625l0 -13.5625l8.140625 0l0 1.453125l-6.5 0l0 4.578125l5.890625 0l0 1.46875l-5.890625 0l0 6.0625l-1.640625 0zm14.069794 -6.78125q0 2.5 -0.65625 4.609375q-0.640625 2.09375 -1.859375 3.859375l-1.375 0q0.46875 -0.65625 0.875 -1.609375q0.421875 -0.953125 0.734375 -2.09375q0.3125 -1.140625 0.484375 -2.359375q0.1875 -1.234375 0.1875 -2.40625q0 -1.578125 -0.3125 -3.203125q-0.296875 -1.625 -0.8125 -3.015625q-0.515625 -1.390625 -1.15625 -2.265625l1.375 0q1.21875 1.765625 1.859375 3.875q0.65625 2.09375 0.65625 4.609375z" fill-rule="nonzero"/><path fill="#c7d3e6" d="m298.77692 171.1302l0 0c0 -7.851013 6.3644714 -14.2155 14.215485 -14.2155l94.15167 0c3.770172 0 7.385956 1.4976959 10.05188 4.16362c2.665924 2.665924 4.1636353 6.2816925 4.1636353 10.05188l0 56.86032c0 7.851013 -6.364502 14.215515 -14.215515 14.215515l-94.15167 0c-7.851013 0 -14.215485 -6.364502 -14.215485 -14.215515z" fill-rule="evenodd"/><path fill="#0d2243" d="m316.43 170.91786l0 13.5625l-1.640625 0l0 -13.5625l1.640625 0zm4.647888 7.4375l0 6.125l-1.5625 0l0 -10.171875l1.5 0l0 1.578125l0.140625 0q0.359375 -0.765625 1.078125 -1.234375q0.734375 -0.484375 1.890625 -0.484375q1.03125 0 1.796875 0.421875q0.78125 0.421875 1.203125 1.28125q0.4375 0.84375 0.4375 2.140625l0 6.46875l-1.5625 0l0 -6.359375q0 -1.203125 -0.625 -1.875q-0.625 -0.671875 -1.703125 -0.671875q-0.75 0 -1.34375 0.328125q-0.578125 0.328125 -0.921875 0.953125q-0.328125 0.609375 -0.328125 1.5zm16.558899 -1.765625l-1.40625 0.390625q-0.125 -0.34375 -0.390625 -0.671875q-0.25 -0.34375 -0.6875 -0.5625q-0.4375 -0.21875 -1.125 -0.21875q-0.9375 0 -1.5625 0.421875q-0.609375 0.421875 -0.609375 1.078125q0 0.59375 0.421875 0.9375q0.421875 0.328125 1.328125 0.546875l1.515625 0.375q1.359375 0.328125 2.03125 1.015625q0.671875 0.671875 0.671875 1.75q0 0.859375 -0.5 1.5625q-0.5 0.6875 -1.40625 1.09375q-0.890625 0.390625 -2.078125 0.390625q-1.546875 0 -2.578125 -0.671875q-1.015625 -0.6875 -1.28125 -1.984375l1.484375 -0.375q0.203125 0.828125 0.796875 1.234375q0.59375 0.40625 1.5625 0.40625q1.09375 0 1.734375 -0.453125q0.640625 -0.46875 0.640625 -1.125q0 -0.53125 -0.375 -0.890625q-0.359375 -0.375 -1.125 -0.546875l-1.703125 -0.390625q-1.390625 -0.34375 -2.046875 -1.03125q-0.65625 -0.703125 -0.65625 -1.765625q0 -0.859375 0.484375 -1.515625q0.484375 -0.65625 1.328125 -1.03125q0.859375 -0.390625 1.921875 -0.390625q1.515625 0 2.375 0.671875q0.875 0.65625 1.234375 1.75zm6.9710083 -2.28125l0 1.328125l-5.28125 0l0 -1.328125l5.28125 0zm-3.734375 -2.4375l1.5625 0l0 9.6875q0 0.671875 0.1875 1.0q0.203125 0.328125 0.5 0.4375q0.3125 0.109375 0.65625 0.109375q0.265625 0 0.421875 -0.03125q0.171875 -0.03125 0.265625 -0.046875l0.328125 1.40625q-0.15625 0.046875 -0.453125 0.109375q-0.28125 0.0625 -0.71875 0.0625q-0.65625 0 -1.296875 -0.28125q-0.625 -0.28125 -1.046875 -0.859375q-0.40625 -0.59375 -0.40625 -1.46875l0 -10.125zm6.0966797 12.609375l0 -10.171875l1.5 0l0 1.53125l0.109375 0q0.28125 -0.75 1.0 -1.21875q0.734375 -0.46875 1.65625 -0.46875q0.171875 0 0.421875 0q0.265625 0 0.390625 0.015625l0 1.59375q-0.078125 -0.015625 -0.359375 -0.0625q-0.28125 -0.046875 -0.59375 -0.046875q-0.734375 0 -1.328125 0.3125q-0.578125 0.3125 -0.90625 0.859375q-0.328125 0.53125 -0.328125 1.21875l0 6.4375l-1.5625 0zm13.349457 -4.15625l0 -6.015625l1.5625 0l0 10.171875l-1.5625 0l0 -1.71875l-0.109375 0q-0.359375 0.765625 -1.109375 1.3125q-0.75 0.53125 -1.90625 0.53125q-0.953125 0 -1.703125 -0.40625q-0.734375 -0.421875 -1.15625 -1.265625q-0.421875 -0.859375 -0.421875 -2.15625l0 -6.46875l1.5625 0l0 6.359375q0 1.109375 0.625 1.78125q0.625 0.65625 1.59375 0.65625q0.578125 0 1.1875 -0.296875q0.609375 -0.296875 1.015625 -0.90625q0.421875 -0.625 0.421875 -1.578125zm8.557526 4.375q-1.421875 0 -2.46875 -0.671875q-1.03125 -0.6875 -1.59375 -1.875q-0.546875 -1.1875 -0.546875 -2.703125q0 -1.546875 0.5625 -2.734375q0.578125 -1.203125 1.609375 -1.875q1.03125 -0.671875 2.40625 -0.671875q1.078125 0 1.9375 0.40625q0.859375 0.390625 1.40625 1.109375q0.5625 0.71875 0.6875 1.671875l-1.5625 0q-0.171875 -0.703125 -0.796875 -1.234375q-0.609375 -0.546875 -1.640625 -0.546875q-0.90625 0 -1.59375 0.484375q-0.6875 0.46875 -1.078125 1.328125q-0.375 0.859375 -0.375 2.0q0 1.1875 0.375 2.0625q0.375 0.875 1.0625 1.359375q0.6875 0.484375 1.609375 0.484375q0.609375 0 1.109375 -0.203125q0.5 -0.21875 0.84375 -0.609375q0.34375 -0.40625 0.484375 -0.96875l1.5625 0q-0.125 0.90625 -0.65625 1.625q-0.515625 0.71875 -1.375 1.140625q-0.84375 0.421875 -1.96875 0.421875zm10.71167 -10.390625l0 1.328125l-5.28125 0l0 -1.328125l5.28125 0zm-3.734375 -2.4375l1.5625 0l0 9.6875q0 0.671875 0.1875 1.0q0.203125 0.328125 0.5 0.4375q0.3125 0.109375 0.65625 0.109375q0.265625 0 0.421875 -0.03125q0.171875 -0.03125 0.265625 -0.046875l0.328125 1.40625q-0.15625 0.046875 -0.453125 0.109375q-0.28125 0.0625 -0.71875 0.0625q-0.65625 0 -1.296875 -0.28125q-0.625 -0.28125 -1.046875 -0.859375q-0.40625 -0.59375 -0.40625 -1.46875l0 -10.125zm6.0966797 12.609375l0 -10.171875l1.5625 0l0 10.171875l-1.5625 0zm0.78125 -11.875q-0.453125 0 -0.78125 -0.3125q-0.328125 -0.3125 -0.328125 -0.75q0 -0.4375 0.328125 -0.75q0.328125 -0.3125 0.78125 -0.3125q0.46875 0 0.796875 0.3125q0.328125 0.3125 0.328125 0.75q0 0.4375 -0.328125 0.75q-0.328125 0.3125 -0.796875 0.3125zm7.769348 12.09375q-1.375 0 -2.421875 -0.65625q-1.03125 -0.65625 -1.609375 -1.828125q-0.578125 -1.1875 -0.578125 -2.765625q0 -1.59375 0.578125 -2.78125q0.578125 -1.1875 1.609375 -1.84375q1.046875 -0.65625 2.421875 -0.65625q1.375 0 2.40625 0.65625q1.046875 0.65625 1.625 1.84375q0.578125 1.1875 0.578125 2.78125q0 1.578125 -0.578125 2.765625q-0.578125 1.171875 -1.625 1.828125q-1.03125 0.65625 -2.40625 0.65625zm0 -1.40625q1.046875 0 1.71875 -0.53125q0.6875 -0.546875 1.0 -1.421875q0.328125 -0.875 0.328125 -1.890625q0 -1.03125 -0.328125 -1.90625q-0.3125 -0.875 -1.0 -1.421875q-0.671875 -0.546875 -1.71875 -0.546875q-1.046875 0 -1.71875 0.546875q-0.671875 0.546875 -1.0 1.421875q-0.328125 0.875 -0.328125 1.90625q0 1.015625 0.328125 1.890625q0.328125 0.875 1.0 1.421875q0.671875 0.53125 1.71875 0.53125zm8.56781 -4.9375l0 6.125l-1.5625 0l0 -10.171875l1.5 0l0 1.578125l0.140625 0q0.359375 -0.765625 1.078125 -1.234375q0.734375 -0.484375 1.890625 -0.484375q1.03125 0 1.796875 0.421875q0.78125 0.421875 1.203125 1.28125q0.4375 0.84375 0.4375 2.140625l0 6.46875l-1.5625 0l0 -6.359375q0 -1.203125 -0.625 -1.875q-0.625 -0.671875 -1.703125 -0.671875q-0.75 0 -1.34375 0.328125q-0.578125 0.328125 -0.921875 0.953125q-0.328125 0.609375 -0.328125 1.5z" fill-rule="nonzero"/><path fill="#0d2243" d="m331.76346 206.48036l-4.1875 0l0 -13.5625l4.375 0q1.96875 0 3.375 0.8125q1.40625 0.8125 2.15625 2.328125q0.75 1.5 0.75 3.609375q0 2.125 -0.765625 3.65625q-0.75 1.515625 -2.203125 2.34375q-1.4375 0.8125 -3.5 0.8125zm-2.546875 -1.453125l2.4375 0q1.6875 0 2.796875 -0.640625q1.109375 -0.65625 1.640625 -1.859375q0.546875 -1.203125 0.546875 -2.859375q0 -1.640625 -0.53125 -2.828125q-0.53125 -1.1875 -1.609375 -1.828125q-1.0625 -0.640625 -2.65625 -0.640625l-2.625 0l0 10.65625zm15.831238 1.671875q-1.46875 0 -2.546875 -0.65625q-1.0625 -0.65625 -1.640625 -1.828125q-0.5625 -1.171875 -0.5625 -2.75q0 -1.5625 0.5625 -2.75q0.578125 -1.203125 1.609375 -1.875q1.03125 -0.671875 2.40625 -0.671875q0.796875 0 1.578125 0.265625q0.78125 0.265625 1.40625 0.859375q0.640625 0.59375 1.015625 1.578125q0.375 0.96875 0.375 2.390625l0 0.65625l-7.84375 0l0 -1.34375l6.265625 0q0 -0.859375 -0.34375 -1.53125q-0.34375 -0.6875 -0.96875 -1.078125q-0.625 -0.390625 -1.484375 -0.390625q-0.921875 0 -1.609375 0.46875q-0.671875 0.453125 -1.046875 1.1875q-0.359375 0.734375 -0.359375 1.578125l0 0.90625q0 1.140625 0.390625 1.953125q0.40625 0.796875 1.125 1.21875q0.71875 0.40625 1.671875 0.40625q0.609375 0 1.109375 -0.171875q0.5 -0.1875 0.859375 -0.53125q0.375 -0.359375 0.5625 -0.890625l1.515625 0.421875q-0.234375 0.765625 -0.796875 1.34375q-0.5625 0.578125 -1.390625 0.90625q-0.828125 0.328125 -1.859375 0.328125zm10.72467 0q-1.421875 0 -2.46875 -0.671875q-1.03125 -0.6875 -1.59375 -1.875q-0.546875 -1.1875 -0.546875 -2.703125q0 -1.546875 0.5625 -2.734375q0.578125 -1.203125 1.609375 -1.875q1.03125 -0.671875 2.40625 -0.671875q1.078125 0 1.9375 0.40625q0.859375 0.390625 1.40625 1.109375q0.5625 0.71875 0.6875 1.671875l-1.5625 0q-0.171875 -0.703125 -0.796875 -1.234375q-0.609375 -0.546875 -1.640625 -0.546875q-0.90625 0 -1.59375 0.484375q-0.6875 0.46875 -1.078125 1.328125q-0.375 0.859375 -0.375 2.0q0 1.1875 0.375 2.0625q0.375 0.875 1.0625 1.359375q0.6875 0.484375 1.609375 0.484375q0.609375 0 1.109375 -0.203125q0.5 -0.21875 0.84375 -0.609375q0.34375 -0.40625 0.484375 -0.96875l1.5625 0q-0.125 0.90625 -0.65625 1.625q-0.515625 0.71875 -1.375 1.140625q-0.84375 0.421875 -1.96875 0.421875zm10.414764 0q-1.375 0 -2.421875 -0.65625q-1.03125 -0.65625 -1.609375 -1.828125q-0.578125 -1.1875 -0.578125 -2.765625q0 -1.59375 0.578125 -2.78125q0.578125 -1.1875 1.609375 -1.84375q1.046875 -0.65625 2.421875 -0.65625q1.375 0 2.40625 0.65625q1.046875 0.65625 1.625 1.84375q0.578125 1.1875 0.578125 2.78125q0 1.578125 -0.578125 2.765625q-0.578125 1.171875 -1.625 1.828125q-1.03125 0.65625 -2.40625 0.65625zm0 -1.40625q1.046875 0 1.71875 -0.53125q0.6875 -0.546875 1.0 -1.421875q0.328125 -0.875 0.328125 -1.890625q0 -1.03125 -0.328125 -1.90625q-0.3125 -0.875 -1.0 -1.421875q-0.671875 -0.546875 -1.71875 -0.546875q-1.046875 0 -1.71875 0.546875q-0.671875 0.546875 -1.0 1.421875q-0.328125 0.875 -0.328125 1.90625q0 1.015625 0.328125 1.890625q0.328125 0.875 1.0 1.421875q0.671875 0.53125 1.71875 0.53125zm10.84906 1.40625q-1.28125 0 -2.265625 -0.640625q-0.96875 -0.65625 -1.515625 -1.828125q-0.546875 -1.1875 -0.546875 -2.8125q0 -1.609375 0.546875 -2.78125q0.546875 -1.1875 1.53125 -1.828125q0.984375 -0.640625 2.265625 -0.640625q1.0 0 1.578125 0.328125q0.578125 0.328125 0.875 0.75q0.3125 0.40625 0.484375 0.671875l0.140625 0l0 -5.0l1.5625 0l0 13.5625l-1.515625 0l0 -1.5625l-0.1875 0q-0.171875 0.28125 -0.484375 0.703125q-0.3125 0.421875 -0.90625 0.75q-0.59375 0.328125 -1.5625 0.328125zm0.203125 -1.40625q0.9375 0 1.578125 -0.484375q0.65625 -0.5 1.0 -1.375q0.34375 -0.890625 0.34375 -2.046875q0 -1.140625 -0.34375 -1.984375q-0.328125 -0.859375 -0.984375 -1.34375q-0.640625 -0.484375 -1.59375 -0.484375q-1.0 0 -1.65625 0.515625q-0.65625 0.5 -0.984375 1.375q-0.328125 0.859375 -0.328125 1.921875q0 1.09375 0.328125 1.984375q0.34375 0.875 1.0 1.40625q0.65625 0.515625 1.640625 0.515625zm11.799561 1.40625q-1.46875 0 -2.546875 -0.65625q-1.0625 -0.65625 -1.640625 -1.828125q-0.5625 -1.171875 -0.5625 -2.75q0 -1.5625 0.5625 -2.75q0.578125 -1.203125 1.609375 -1.875q1.03125 -0.671875 2.40625 -0.671875q0.796875 0 1.578125 0.265625q0.78125 0.265625 1.40625 0.859375q0.640625 0.59375 1.015625 1.578125q0.375 0.96875 0.375 2.390625l0 0.65625l-7.84375 0l0 -1.34375l6.265625 0q0 -0.859375 -0.34375 -1.53125q-0.34375 -0.6875 -0.96875 -1.078125q-0.625 -0.390625 -1.484375 -0.390625q-0.921875 0 -1.609375 0.46875q-0.671875 0.453125 -1.046875 1.1875q-0.359375 0.734375 -0.359375 1.578125l0 0.90625q0 1.140625 0.390625 1.953125q0.40625 0.796875 1.125 1.21875q0.71875 0.40625 1.671875 0.40625q0.609375 0 1.109375 -0.171875q0.5 -0.1875 0.859375 -0.53125q0.375 -0.359375 0.5625 -0.890625l1.515625 0.421875q-0.234375 0.765625 -0.796875 1.34375q-0.5625 0.578125 -1.390625 0.90625q-0.828125 0.328125 -1.859375 0.328125z" fill-rule="nonzero"/><path fill="#0d2243" d="m346.1257 221.69911q0 -2.515625 0.65625 -4.609375q0.65625 -2.109375 1.859375 -3.875l1.390625 0q-0.484375 0.65625 -0.90625 1.609375q-0.40625 0.953125 -0.71875 2.109375q-0.3125 1.140625 -0.484375 2.359375q-0.171875 1.21875 -0.171875 2.40625q0 1.578125 0.296875 3.203125q0.3125 1.609375 0.828125 3.0q0.515625 1.390625 1.15625 2.265625l-1.390625 0q-1.203125 -1.765625 -1.859375 -3.859375q-0.65625 -2.109375 -0.65625 -4.609375zm8.054535 -6.78125l0 13.5625l-1.640625 0l0 -13.5625l1.640625 0zm7.476013 13.5625l-4.1875 0l0 -13.5625l4.375 0q1.96875 0 3.375 0.8125q1.40625 0.8125 2.15625 2.328125q0.75 1.5 0.75 3.609375q0 2.125 -0.765625 3.65625q-0.75 1.515625 -2.203125 2.34375q-1.4375 0.8125 -3.5 0.8125zm-2.546875 -1.453125l2.4375 0q1.6875 0 2.796875 -0.640625q1.109375 -0.65625 1.640625 -1.859375q0.546875 -1.203125 0.546875 -2.859375q0 -1.640625 -0.53125 -2.828125q-0.53125 -1.1875 -1.609375 -1.828125q-1.0625 -0.640625 -2.65625 -0.640625l-2.625 0l0 10.65625zm14.893738 -5.328125q0 2.5 -0.65625 4.609375q-0.640625 2.09375 -1.859375 3.859375l-1.375 0q0.46875 -0.65625 0.875 -1.609375q0.421875 -0.953125 0.734375 -2.09375q0.3125 -1.140625 0.484375 -2.359375q0.1875 -1.234375 0.1875 -2.40625q0 -1.578125 -0.3125 -3.203125q-0.296875 -1.625 -0.8125 -3.015625q-0.515625 -1.390625 -1.15625 -2.265625l1.375 0q1.21875 1.765625 1.859375 3.875q0.65625 2.09375 0.65625 4.609375z" fill-rule="nonzero"/><path fill="#c7d3e6" d="m514.7769 19.79031l0 0c0 -7.8510075 6.364502 -14.215507 14.215515 -14.215507l94.15161 0c3.7702026 0 7.3859863 1.4977007 10.051941 4.1636257c2.6658936 2.665925 4.163574 6.2816954 4.163574 10.051881l0 56.860325c0 7.8510056 -6.364502 14.2155075 -14.215515 14.2155075l-94.15161 0c-7.851013 0 -14.215515 -6.364502 -14.215515 -14.2155075z" fill-rule="evenodd"/><path fill="#0d2243" d="m541.35 33.140472l0 -13.562502l4.59375 0q1.578125 0 2.59375 0.546875q1.03125 0.53125 1.515625 1.46875q0.5 0.9375 0.5 2.140625q0 1.203125 -0.5 2.125q-0.484375 0.921875 -1.5 1.453125q-1.015625 0.53125 -2.59375 0.53125l-3.703125 0l0 -1.484375l3.65625 0q1.078125 0 1.75 -0.3125q0.671875 -0.328125 0.96875 -0.90625q0.296875 -0.59375 0.296875 -1.40625q0 -0.8125 -0.3125 -1.421875q-0.296875 -0.609375 -0.96875 -0.9375q-0.65625 -0.34375 -1.765625 -0.34375l-2.890625 0l0 12.109377l-1.640625 0zm6.390625 -6.093752l3.34375 6.093752l-1.921875 0l-3.28125 -6.093752l1.859375 0zm9.491089 6.312502q-1.46875 0 -2.546875 -0.65625q-1.0625 -0.65625 -1.640625 -1.8281269q-0.5625 -1.171875 -0.5625 -2.75q0 -1.5625 0.5625 -2.75q0.578125 -1.203125 1.609375 -1.875q1.03125 -0.671875 2.40625 -0.671875q0.796875 0 1.578125 0.265625q0.78125 0.265625 1.40625 0.859375q0.640625 0.59375 1.015625 1.578125q0.375 0.96875 0.375 2.390625l0 0.65625l-7.84375 0l0 -1.34375l6.265625 0q0 -0.859375 -0.34375 -1.53125q-0.34375 -0.6875 -0.96875 -1.078125q-0.625 -0.390625 -1.484375 -0.390625q-0.921875 0 -1.609375 0.46875q-0.671875 0.453125 -1.046875 1.1875q-0.359375 0.734375 -0.359375 1.578125l0 0.90625q0 1.140625 0.390625 1.953125q0.40625 0.796875 1.125 1.21875q0.71875 0.40625 1.671875 0.40625q0.609375 0 1.109375 -0.171875q0.5 -0.1875 0.859375 -0.53125q0.375 -0.359375 0.5625 -0.890625l1.515625 0.421875q-0.234375 0.765625 -0.796875 1.3437519q-0.5625 0.578125 -1.390625 0.90625q-0.828125 0.328125 -1.859375 0.328125zm10.69342 3.8125q-1.125 0 -1.9375 -0.296875q-0.8125 -0.28125 -1.359375 -0.75q-0.53125 -0.46875 -0.859375 -1.0l1.25 -0.875q0.203125 0.28125 0.53125 0.640625q0.328125 0.359375 0.890625 0.625q0.578125 0.28125 1.484375 0.28125q1.234375 0 2.03125 -0.609375q0.8125 -0.59375 0.8125 -1.859375l0 -2.062502l-0.140625 0q-0.171875 0.265625 -0.484375 0.6875q-0.3125 0.4062519 -0.90625 0.7187519q-0.578125 0.3125 -1.5625 0.3125q-1.234375 0 -2.21875 -0.578125q-0.96875 -0.5937519 -1.546875 -1.7031269q-0.5625 -1.109375 -0.5625 -2.703125q0 -1.5625 0.546875 -2.71875q0.546875 -1.171875 1.53125 -1.8125q0.984375 -0.640625 2.265625 -0.640625q1.0 0 1.578125 0.328125q0.59375 0.328125 0.90625 0.75q0.3125 0.40625 0.484375 0.671875l0.15625 0l0 -1.609375l1.515625 0l0 10.468752q0 1.3125 -0.59375 2.125q-0.59375 0.828125 -1.59375 1.21875q-1.0 0.390625 -2.21875 0.390625zm-0.046875 -5.593752q0.9375 0 1.578125 -0.421875q0.65625 -0.4375 1.0 -1.25q0.34375 -0.8125 0.34375 -1.9375q0 -1.09375 -0.34375 -1.9375q-0.328125 -0.84375 -0.984375 -1.3125q-0.640625 -0.484375 -1.59375 -0.484375q-1.0 0 -1.65625 0.515625q-0.65625 0.5 -0.984375 1.34375q-0.328125 0.84375 -0.328125 1.875q0 1.0625 0.328125 1.875q0.34375 0.8125 1.0 1.28125q0.65625 0.453125 1.640625 0.453125zm7.3219604 1.5625019l0 -10.171877l1.5625 0l0 10.171877l-1.5625 0zm0.78125 -11.875002q-0.453125 0 -0.78125 -0.3125q-0.328125 -0.3125 -0.328125 -0.75q0 -0.4375 0.328125 -0.75q0.328125 -0.3125 0.78125 -0.3125q0.46875 0 0.796875 0.3125q0.328125 0.3125 0.328125 0.75q0 0.4375 -0.328125 0.75q-0.328125 0.3125 -0.796875 0.3125zm10.847473 3.984375l-1.40625 0.390625q-0.125 -0.34375 -0.390625 -0.671875q-0.25 -0.34375 -0.6875 -0.5625q-0.4375 -0.21875 -1.125 -0.21875q-0.9375 0 -1.5625 0.421875q-0.609375 0.421875 -0.609375 1.078125q0 0.59375 0.421875 0.9375q0.421875 0.328125 1.328125 0.546875l1.515625 0.375q1.359375 0.328125 2.03125 1.015625q0.671875 0.671875 0.671875 1.75q0 0.859375 -0.5 1.5625q-0.5 0.6875019 -1.40625 1.0937519q-0.890625 0.390625 -2.078125 0.390625q-1.546875 0 -2.578125 -0.671875q-1.015625 -0.6875019 -1.28125 -1.9843769l1.484375 -0.375q0.203125 0.828125 0.796875 1.234375q0.59375 0.40625 1.5625 0.40625q1.09375 0 1.734375 -0.453125q0.640625 -0.46875 0.640625 -1.125q0 -0.53125 -0.375 -0.890625q-0.359375 -0.375 -1.125 -0.546875l-1.703125 -0.390625q-1.390625 -0.34375 -2.046875 -1.03125q-0.65625 -0.703125 -0.65625 -1.765625q0 -0.859375 0.484375 -1.515625q0.484375 -0.65625 1.328125 -1.03125q0.859375 -0.390625 1.921875 -0.390625q1.515625 0 2.375 0.671875q0.875 0.65625 1.234375 1.75zm6.9710083 -2.28125l0 1.328125l-5.28125 0l0 -1.328125l5.28125 0zm-3.734375 -2.4375l1.5625 0l0 9.6875q0 0.671875 0.1875 1.0q0.203125 0.328125 0.5 0.4375q0.3125 0.109375 0.65625 0.109375q0.265625 0 0.421875 -0.03125q0.171875 -0.03125 0.265625 -0.046875l0.328125 1.4062519q-0.15625 0.046875 -0.453125 0.109375q-0.28125 0.0625 -0.71875 0.0625q-0.65625 0 -1.296875 -0.28125q-0.625 -0.28125 -1.046875 -0.859375q-0.40625 -0.5937519 -0.40625 -1.4687519l0 -10.125zm10.256226 12.828127q-1.46875 0 -2.546875 -0.65625q-1.0625 -0.65625 -1.640625 -1.8281269q-0.5625 -1.171875 -0.5625 -2.75q0 -1.5625 0.5625 -2.75q0.578125 -1.203125 1.609375 -1.875q1.03125 -0.671875 2.40625 -0.671875q0.796875 0 1.578125 0.265625q0.78125 0.265625 1.40625 0.859375q0.640625 0.59375 1.015625 1.578125q0.375 0.96875 0.375 2.390625l0 0.65625l-7.84375 0l0 -1.34375l6.265625 0q0 -0.859375 -0.34375 -1.53125q-0.34375 -0.6875 -0.96875 -1.078125q-0.625 -0.390625 -1.484375 -0.390625q-0.921875 0 -1.609375 0.46875q-0.671875 0.453125 -1.046875 1.1875q-0.359375 0.734375 -0.359375 1.578125l0 0.90625q0 1.140625 0.390625 1.953125q0.40625 0.796875 1.125 1.21875q0.71875 0.40625 1.671875 0.40625q0.609375 0 1.109375 -0.171875q0.5 -0.1875 0.859375 -0.53125q0.375 -0.359375 0.5625 -0.890625l1.515625 0.421875q-0.234375 0.765625 -0.796875 1.3437519q-0.5625 0.578125 -1.390625 0.90625q-0.828125 0.328125 -1.859375 0.328125zm6.5996704 -0.21875l0 -10.171877l1.5 0l0 1.53125l0.109375 0q0.28125 -0.75 1.0 -1.21875q0.734375 -0.46875 1.65625 -0.46875q0.171875 0 0.421875 0q0.265625 0 0.390625 0.015625l0 1.59375q-0.078125 -0.015625 -0.359375 -0.0625q-0.28125 -0.046875 -0.59375 -0.046875q-0.734375 0 -1.328125 0.3125q-0.578125 0.3125 -0.90625 0.859375q-0.328125 0.53125 -0.328125 1.21875l0 6.437502l-1.5625 0z" fill-rule="nonzero"/><path fill="#0d2243" d="m555.3158 55.140472l0 -13.5625l4.59375 0q1.578125 0 2.59375 0.546875q1.03125 0.53125 1.515625 1.46875q0.5 0.9375 0.5 2.140625q0 1.203125 -0.5 2.125q-0.484375 0.921875 -1.5 1.453125q-1.015625 0.53125 -2.59375 0.53125l-3.703125 0l0 -1.484375l3.65625 0q1.078125 0 1.75 -0.3125q0.671875 -0.328125 0.96875 -0.90625q0.296875 -0.59375 0.296875 -1.40625q0 -0.8125 -0.3125 -1.421875q-0.296875 -0.609375 -0.96875 -0.9375q-0.65625 -0.34375 -1.765625 -0.34375l-2.890625 0l0 12.109375l-1.640625 0zm6.390625 -6.09375l3.34375 6.09375l-1.921875 0l-3.28125 -6.09375l1.859375 0zm9.49115 6.3125q-1.46875 0 -2.546875 -0.65625q-1.0625 -0.65625 -1.640625 -1.828125q-0.5625 -1.171875 -0.5625 -2.75q0 -1.5625 0.5625 -2.75q0.578125 -1.203125 1.609375 -1.875q1.03125 -0.671875 2.40625 -0.671875q0.796875 0 1.578125 0.265625q0.78125 0.265625 1.40625 0.859375q0.640625 0.59375 1.015625 1.578125q0.375 0.96875 0.375 2.390625l0 0.65625l-7.84375 0l0 -1.34375l6.265625 0q0 -0.859375 -0.34375 -1.53125q-0.34375 -0.6875 -0.96875 -1.078125q-0.625 -0.390625 -1.484375 -0.390625q-0.921875 0 -1.609375 0.46875q-0.671875 0.453125 -1.046875 1.1875q-0.359375 0.734375 -0.359375 1.578125l0 0.90625q0 1.140625 0.390625 1.953125q0.40625 0.796875 1.125 1.21875q0.71875 0.40625 1.671875 0.40625q0.609375 0 1.109375 -0.171875q0.5 -0.1875 0.859375 -0.53125q0.375 -0.359375 0.5625 -0.890625l1.515625 0.421875q-0.234375 0.765625 -0.796875 1.34375q-0.5625 0.578125 -1.390625 0.90625q-0.828125 0.328125 -1.859375 0.328125zm9.584045 0.015625q-0.96875 0 -1.765625 -0.359375q-0.78125 -0.375 -1.25 -1.0625q-0.453125 -0.703125 -0.453125 -1.703125q0 -0.875 0.34375 -1.421875q0.34375 -0.546875 0.921875 -0.859375q0.578125 -0.3125 1.265625 -0.46875q0.703125 -0.15625 1.421875 -0.25q0.921875 -0.109375 1.5 -0.171875q0.578125 -0.0625 0.84375 -0.21875q0.28125 -0.15625 0.28125 -0.53125l0 -0.046875q0 -0.984375 -0.546875 -1.53125q-0.53125 -0.546875 -1.609375 -0.546875q-1.109375 0 -1.75 0.5q-0.640625 0.484375 -0.890625 1.046875l-1.484375 -0.53125q0.390625 -0.921875 1.046875 -1.4375q0.671875 -0.53125 1.46875 -0.734375q0.796875 -0.21875 1.5625 -0.21875q0.484375 0 1.125 0.125q0.640625 0.109375 1.234375 0.46875q0.609375 0.359375 1.0 1.078125q0.40625 0.71875 0.40625 1.9375l0 6.703125l-1.5625 0l0 -1.375l-0.078125 0q-0.171875 0.328125 -0.546875 0.703125q-0.359375 0.375 -0.984375 0.640625q-0.609375 0.265625 -1.5 0.265625zm0.25 -1.40625q0.921875 0 1.5625 -0.359375q0.640625 -0.359375 0.96875 -0.9375q0.328125 -0.578125 0.328125 -1.21875l0 -1.421875q-0.109375 0.109375 -0.453125 0.21875q-0.328125 0.09375 -0.765625 0.15625q-0.421875 0.0625 -0.828125 0.125q-0.40625 0.046875 -0.65625 0.078125q-0.609375 0.078125 -1.140625 0.265625q-0.53125 0.171875 -0.859375 0.515625q-0.3125 0.34375 -0.3125 0.9375q0 0.8125 0.609375 1.234375q0.609375 0.40625 1.546875 0.40625zm11.130127 1.390625q-1.28125 0 -2.265625 -0.640625q-0.96875 -0.65625 -1.515625 -1.828125q-0.546875 -1.1875 -0.546875 -2.8125q0 -1.609375 0.546875 -2.78125q0.546875 -1.1875 1.53125 -1.828125q0.984375 -0.640625 2.265625 -0.640625q1.0 0 1.578125 0.328125q0.578125 0.328125 0.875 0.75q0.3125 0.40625 0.484375 0.671875l0.140625 0l0 -5.0l1.5625 0l0 13.5625l-1.515625 0l0 -1.5625l-0.1875 0q-0.171875 0.28125 -0.484375 0.703125q-0.3125 0.421875 -0.90625 0.75q-0.59375 0.328125 -1.5625 0.328125zm0.203125 -1.40625q0.9375 0 1.578125 -0.484375q0.65625 -0.5 1.0 -1.375q0.34375 -0.890625 0.34375 -2.046875q0 -1.140625 -0.34375 -1.984375q-0.328125 -0.859375 -0.984375 -1.34375q-0.640625 -0.484375 -1.59375 -0.484375q-1.0 0 -1.65625 0.515625q-0.65625 0.5 -0.984375 1.375q-0.328125 0.859375 -0.328125 1.921875q0 1.09375 0.328125 1.984375q0.34375 0.875 1.0 1.40625q0.65625 0.515625 1.640625 0.515625z" fill-rule="nonzero"/><path fill="#0d2243" d="m559.3696 70.359215q0 -2.515625 0.65625 -4.609375q0.65625 -2.1093712 1.859375 -3.8749962l1.390625 0q-0.484375 0.65625 -0.90625 1.609375q-0.40625 0.9531212 -0.71875 2.1093712q-0.3125 1.140625 -0.484375 2.359375q-0.171875 1.21875 -0.171875 2.40625q0 1.578125 0.296875 3.203125q0.3125 1.609375 0.828125 3.0q0.515625 1.390625 1.15625 2.265625l-1.390625 0q-1.203125 -1.765625 -1.859375 -3.859375q-0.65625 -2.109375 -0.65625 -4.609375zm6.4139404 6.78125l0 -13.562496l4.59375 0q1.578125 0 2.59375 0.5468712q1.03125 0.53125 1.515625 1.46875q0.5 0.9375 0.5 2.140625q0 1.203125 -0.5 2.125q-0.484375 0.921875 -1.5 1.453125q-1.015625 0.53125 -2.59375 0.53125l-3.703125 0l0 -1.484375l3.65625 0q1.078125 0 1.75 -0.3125q0.671875 -0.328125 0.96875 -0.90625q0.296875 -0.59375 0.296875 -1.40625q0 -0.8125 -0.3125 -1.421875q-0.296875 -0.609375 -0.96875 -0.9375q-0.65625 -0.34375 -1.765625 -0.34375l-2.890625 0l0 12.109375l-1.640625 0zm6.390625 -6.09375l3.34375 6.09375l-1.921875 0l-3.28125 -6.09375l1.859375 0zm5.534668 6.09375l0 -13.562496l4.59375 0q1.578125 0 2.59375 0.5468712q1.03125 0.53125 1.515625 1.46875q0.5 0.9375 0.5 2.140625q0 1.203125 -0.5 2.125q-0.484375 0.921875 -1.5 1.453125q-1.015625 0.53125 -2.59375 0.53125l-3.703125 0l0 -1.484375l3.65625 0q1.078125 0 1.75 -0.3125q0.671875 -0.328125 0.96875 -0.90625q0.296875 -0.59375 0.296875 -1.40625q0 -0.8125 -0.3125 -1.421875q-0.296875 -0.609375 -0.96875 -0.9375q-0.65625 -0.34375 -1.765625 -0.34375l-2.890625 0l0 12.109375l-1.640625 0zm6.390625 -6.09375l3.34375 6.09375l-1.921875 0l-3.28125 -6.09375l1.859375 0zm8.659729 -0.6875q0 2.5 -0.65625 4.609375q-0.640625 2.09375 -1.859375 3.859375l-1.375 0q0.46875 -0.65625 0.875 -1.609375q0.421875 -0.953125 0.734375 -2.09375q0.3125 -1.140625 0.484375 -2.359375q0.1875 -1.234375 0.1875 -2.40625q0 -1.578125 -0.3125 -3.203125q-0.296875 -1.625 -0.8125 -3.015625q-0.515625 -1.3906212 -1.15625 -2.2656212l1.375 0q1.21875 1.765625 1.859375 3.8749962q0.65625 2.09375 0.65625 4.609375z" fill-rule="nonzero"/><path fill="#c7d3e6" d="m514.7769 171.1302l0 0c0 -7.851013 6.364502 -14.2155 14.215515 -14.2155l94.15161 0c3.7702026 0 7.3859863 1.4976959 10.051941 4.16362c2.6658936 2.665924 4.163574 6.2816925 4.163574 10.05188l0 56.86032c0 7.851013 -6.364502 14.215515 -14.215515 14.215515l-94.15161 0c-7.851013 0 -14.215515 -6.364502 -14.215515 -14.215515z" fill-rule="evenodd"/><path fill="#0d2243" d="m542.4763 195.48036l0 -13.5625l8.1875 0l0 1.453125l-6.546875 0l0 4.578125l6.125 0l0 1.46875l-6.125 0l0 4.609375l6.65625 0l0 1.453125l-8.296875 0zm12.109924 -10.171875l2.4375 4.15625l2.4375 -4.15625l1.8125 0l-3.296875 5.078125l3.296875 5.09375l-1.8125 0l-2.4375 -3.953125l-2.4375 3.953125l-1.796875 0l3.234375 -5.09375l-3.234375 -5.078125l1.796875 0zm12.755371 10.390625q-1.46875 0 -2.546875 -0.65625q-1.0625 -0.65625 -1.640625 -1.828125q-0.5625 -1.171875 -0.5625 -2.75q0 -1.5625 0.5625 -2.75q0.578125 -1.203125 1.609375 -1.875q1.03125 -0.671875 2.40625 -0.671875q0.796875 0 1.578125 0.265625q0.78125 0.265625 1.40625 0.859375q0.640625 0.59375 1.015625 1.578125q0.375 0.96875 0.375 2.390625l0 0.65625l-7.84375 0l0 -1.34375l6.265625 0q0 -0.859375 -0.34375 -1.53125q-0.34375 -0.6875 -0.96875 -1.078125q-0.625 -0.390625 -1.484375 -0.390625q-0.921875 0 -1.609375 0.46875q-0.671875 0.453125 -1.046875 1.1875q-0.359375 0.734375 -0.359375 1.578125l0 0.90625q0 1.140625 0.390625 1.953125q0.40625 0.796875 1.125 1.21875q0.71875 0.40625 1.671875 0.40625q0.609375 0 1.109375 -0.171875q0.5 -0.1875 0.859375 -0.53125q0.375 -0.359375 0.5625 -0.890625l1.515625 0.421875q-0.234375 0.765625 -0.796875 1.34375q-0.5625 0.578125 -1.390625 0.90625q-0.828125 0.328125 -1.859375 0.328125zm10.72467 0q-1.421875 0 -2.46875 -0.671875q-1.03125 -0.6875 -1.59375 -1.875q-0.546875 -1.1875 -0.546875 -2.703125q0 -1.546875 0.5625 -2.734375q0.578125 -1.203125 1.609375 -1.875q1.03125 -0.671875 2.40625 -0.671875q1.078125 0 1.9375 0.40625q0.859375 0.390625 1.40625 1.109375q0.5625 0.71875 0.6875 1.671875l-1.5625 0q-0.171875 -0.703125 -0.796875 -1.234375q-0.609375 -0.546875 -1.640625 -0.546875q-0.90625 0 -1.59375 0.484375q-0.6875 0.46875 -1.078125 1.328125q-0.375 0.859375 -0.375 2.0q0 1.1875 0.375 2.0625q0.375 0.875 1.0625 1.359375q0.6875 0.484375 1.609375 0.484375q0.609375 0 1.109375 -0.203125q0.5 -0.21875 0.84375 -0.609375q0.34375 -0.40625 0.484375 -0.96875l1.5625 0q-0.125 0.90625 -0.65625 1.625q-0.515625 0.71875 -1.375 1.140625q-0.84375 0.421875 -1.96875 0.421875zm12.696045 -4.375l0 -6.015625l1.5625 0l0 10.171875l-1.5625 0l0 -1.71875l-0.109375 0q-0.359375 0.765625 -1.109375 1.3125q-0.75 0.53125 -1.90625 0.53125q-0.953125 0 -1.703125 -0.40625q-0.734375 -0.421875 -1.15625 -1.265625q-0.421875 -0.859375 -0.421875 -2.15625l0 -6.46875l1.5625 0l0 6.359375q0 1.109375 0.625 1.78125q0.625 0.65625 1.59375 0.65625q0.578125 0 1.1875 -0.296875q0.609375 -0.296875 1.015625 -0.90625q0.421875 -0.625 0.421875 -1.578125zm8.854431 -6.015625l0 1.328125l-5.28125 0l0 -1.328125l5.28125 0zm-3.734375 -2.4375l1.5625 0l0 9.6875q0 0.671875 0.1875 1.0q0.203125 0.328125 0.5 0.4375q0.3125 0.109375 0.65625 0.109375q0.265625 0 0.421875 -0.03125q0.171875 -0.03125 0.265625 -0.046875l0.328125 1.40625q-0.15625 0.046875 -0.453125 0.109375q-0.28125 0.0625 -0.71875 0.0625q-0.65625 0 -1.296875 -0.28125q-0.625 -0.28125 -1.046875 -0.859375q-0.40625 -0.59375 -0.40625 -1.46875l0 -10.125zm10.256226 12.828125q-1.46875 0 -2.546875 -0.65625q-1.0625 -0.65625 -1.640625 -1.828125q-0.5625 -1.171875 -0.5625 -2.75q0 -1.5625 0.5625 -2.75q0.578125 -1.203125 1.609375 -1.875q1.03125 -0.671875 2.40625 -0.671875q0.796875 0 1.578125 0.265625q0.78125 0.265625 1.40625 0.859375q0.640625 0.59375 1.015625 1.578125q0.375 0.96875 0.375 2.390625l0 0.65625l-7.84375 0l0 -1.34375l6.265625 0q0 -0.859375 -0.34375 -1.53125q-0.34375 -0.6875 -0.96875 -1.078125q-0.625 -0.390625 -1.484375 -0.390625q-0.921875 0 -1.609375 0.46875q-0.671875 0.453125 -1.046875 1.1875q-0.359375 0.734375 -0.359375 1.578125l0 0.90625q0 1.140625 0.390625 1.953125q0.40625 0.796875 1.125 1.21875q0.71875 0.40625 1.671875 0.40625q0.609375 0 1.109375 -0.171875q0.5 -0.1875 0.859375 -0.53125q0.375 -0.359375 0.5625 -0.890625l1.515625 0.421875q-0.234375 0.765625 -0.796875 1.34375q-0.5625 0.578125 -1.390625 0.90625q-0.828125 0.328125 -1.859375 0.328125z" fill-rule="nonzero"/><path fill="#0d2243" d="m559.72736 210.69911q0 -2.515625 0.65625 -4.609375q0.65625 -2.109375 1.859375 -3.875l1.390625 0q-0.484375 0.65625 -0.90625 1.609375q-0.40625 0.953125 -0.71875 2.109375q-0.3125 1.140625 -0.484375 2.359375q-0.171875 1.21875 -0.171875 2.40625q0 1.578125 0.296875 3.203125q0.3125 1.609375 0.828125 3.0q0.515625 1.390625 1.15625 2.265625l-1.390625 0q-1.203125 -1.765625 -1.859375 -3.859375q-0.65625 -2.109375 -0.65625 -4.609375zm6.4139404 6.78125l0 -13.5625l8.1875 0l0 1.453125l-6.546875 0l0 4.578125l6.125 0l0 1.46875l-6.125 0l0 4.609375l6.65625 0l0 1.453125l-8.296875 0zm11.953674 -13.5625l3.5 5.640625l0.109375 0l3.5 -5.640625l1.921875 0l-4.265625 6.78125l4.265625 6.78125l-1.921875 0l-3.5 -5.53125l-0.109375 0l-3.5 5.53125l-1.9375 0l4.375 -6.78125l-4.375 -6.78125l1.9375 0zm14.3064575 6.78125q0 2.5 -0.65625 4.609375q-0.640625 2.09375 -1.859375 3.859375l-1.375 0q0.46875 -0.65625 0.875 -1.609375q0.421875 -0.953125 0.734375 -2.09375q0.3125 -1.140625 0.484375 -2.359375q0.1875 -1.234375 0.1875 -2.40625q0 -1.578125 -0.3125 -3.203125q-0.296875 -1.625 -0.8125 -3.015625q-0.515625 -1.390625 -1.15625 -2.265625l1.375 0q1.21875 1.765625 1.859375 3.875q0.65625 2.09375 0.65625 4.609375z" fill-rule="nonzero"/><path fill="#c7d3e6" d="m299.04868 271.62103l0 0c0 -7.851013 6.364502 -14.215515 14.215515 -14.215515l94.15164 0c3.7702026 0 7.385956 1.4976807 10.05188 4.1636047c2.665924 2.6659546 4.1636353 6.281708 4.1636353 10.05191l0 56.86032c0 7.8509827 -6.364502 14.215485 -14.215515 14.215485l-94.15164 0c-7.851013 0 -14.215515 -6.364502 -14.215515 -14.215485z" fill-rule="evenodd"/><path fill="#0d2243" d="m324.65448 284.9712l0 -13.5625l4.59375 0q1.59375 0 2.609375 0.578125q1.015625 0.5625 1.5 1.546875q0.5 0.96875 0.5 2.15625q0 1.203125 -0.5 2.1875q-0.484375 0.984375 -1.5 1.5625q-1.0 0.578125 -2.59375 0.578125l-3.28125 0l0 -1.453125l3.234375 0q1.09375 0 1.75 -0.375q0.671875 -0.390625 0.96875 -1.03125q0.296875 -0.640625 0.296875 -1.46875q0 -0.8125 -0.296875 -1.453125q-0.296875 -0.640625 -0.96875 -1.0q-0.671875 -0.375 -1.78125 -0.375l-2.890625 0l0 12.109375l-1.640625 0zm11.64267 0l0 -10.171875l1.5 0l0 1.53125l0.109375 0q0.28125 -0.75 1.0 -1.21875q0.734375 -0.46875 1.65625 -0.46875q0.171875 0 0.421875 0q0.265625 0 0.390625 0.015625l0 1.59375q-0.078125 -0.015625 -0.359375 -0.0625q-0.28125 -0.046875 -0.59375 -0.046875q-0.734375 0 -1.328125 0.3125q-0.578125 0.3125 -0.90625 0.859375q-0.328125 0.53125 -0.328125 1.21875l0 6.4375l-1.5625 0zm10.7500305 0.21875q-1.375 0 -2.421875 -0.65625q-1.03125 -0.65625 -1.609375 -1.828125q-0.578125 -1.1875 -0.578125 -2.765625q0 -1.59375 0.578125 -2.78125q0.578125 -1.1875 1.609375 -1.84375q1.046875 -0.65625 2.421875 -0.65625q1.375 0 2.40625 0.65625q1.046875 0.65625 1.625 1.84375q0.578125 1.1875 0.578125 2.78125q0 1.578125 -0.578125 2.765625q-0.578125 1.171875 -1.625 1.828125q-1.03125 0.65625 -2.40625 0.65625zm0 -1.40625q1.046875 0 1.71875 -0.53125q0.6875 -0.546875 1.0 -1.421875q0.328125 -0.875 0.328125 -1.890625q0 -1.03125 -0.328125 -1.90625q-0.3125 -0.875 -1.0 -1.421875q-0.671875 -0.546875 -1.71875 -0.546875q-1.046875 0 -1.71875 0.546875q-0.671875 0.546875 -1.0 1.421875q-0.328125 0.875 -0.328125 1.90625q0 1.015625 0.328125 1.890625q0.328125 0.875 1.0 1.421875q0.671875 0.53125 1.71875 0.53125zm11.09903 5.21875q-1.125 0 -1.9375 -0.296875q-0.8125 -0.28125 -1.359375 -0.75q-0.53125 -0.46875 -0.859375 -1.0l1.25 -0.875q0.203125 0.28125 0.53125 0.640625q0.328125 0.359375 0.890625 0.625q0.578125 0.28125 1.484375 0.28125q1.234375 0 2.03125 -0.609375q0.8125 -0.59375 0.8125 -1.859375l0 -2.0625l-0.140625 0q-0.171875 0.265625 -0.484375 0.6875q-0.3125 0.40625 -0.90625 0.71875q-0.578125 0.3125 -1.5625 0.3125q-1.234375 0 -2.21875 -0.578125q-0.96875 -0.59375 -1.546875 -1.703125q-0.5625 -1.109375 -0.5625 -2.703125q0 -1.5625 0.546875 -2.71875q0.546875 -1.171875 1.53125 -1.8125q0.984375 -0.640625 2.265625 -0.640625q1.0 0 1.578125 0.328125q0.59375 0.328125 0.90625 0.75q0.3125 0.40625 0.484375 0.671875l0.15625 0l0 -1.609375l1.515625 0l0 10.46875q0 1.3125 -0.59375 2.125q-0.59375 0.828125 -1.59375 1.21875q-1.0 0.390625 -2.21875 0.390625zm-0.046875 -5.59375q0.9375 0 1.578125 -0.421875q0.65625 -0.4375 1.0 -1.25q0.34375 -0.8125 0.34375 -1.9375q0 -1.09375 -0.34375 -1.9375q-0.328125 -0.84375 -0.984375 -1.3125q-0.640625 -0.484375 -1.59375 -0.484375q-1.0 0 -1.65625 0.515625q-0.65625 0.5 -0.984375 1.34375q-0.328125 0.84375 -0.328125 1.875q0 1.0625 0.328125 1.875q0.34375 0.8125 1.0 1.28125q0.65625 0.453125 1.640625 0.453125zm7.32193 1.5625l0 -10.171875l1.5 0l0 1.53125l0.109375 0q0.28125 -0.75 1.0 -1.21875q0.734375 -0.46875 1.65625 -0.46875q0.171875 0 0.421875 0q0.265625 0 0.390625 0.015625l0 1.59375q-0.078125 -0.015625 -0.359375 -0.0625q-0.28125 -0.046875 -0.59375 -0.046875q-0.734375 0 -1.328125 0.3125q-0.578125 0.3125 -0.90625 0.859375q-0.328125 0.53125 -0.328125 1.21875l0 6.4375l-1.5625 0zm9.927582 0.234375q-0.96875 0 -1.765625 -0.359375q-0.78125 -0.375 -1.25 -1.0625q-0.453125 -0.703125 -0.453125 -1.703125q0 -0.875 0.34375 -1.421875q0.34375 -0.546875 0.921875 -0.859375q0.578125 -0.3125 1.265625 -0.46875q0.703125 -0.15625 1.421875 -0.25q0.921875 -0.109375 1.5 -0.171875q0.578125 -0.0625 0.84375 -0.21875q0.28125 -0.15625 0.28125 -0.53125l0 -0.046875q0 -0.984375 -0.546875 -1.53125q-0.53125 -0.546875 -1.609375 -0.546875q-1.109375 0 -1.75 0.5q-0.640625 0.484375 -0.890625 1.046875l-1.484375 -0.53125q0.390625 -0.921875 1.046875 -1.4375q0.671875 -0.53125 1.46875 -0.734375q0.796875 -0.21875 1.5625 -0.21875q0.484375 0 1.125 0.125q0.640625 0.109375 1.234375 0.46875q0.609375 0.359375 1.0 1.078125q0.40625 0.71875 0.40625 1.9375l0 6.703125l-1.5625 0l0 -1.375l-0.078125 0q-0.171875 0.328125 -0.546875 0.703125q-0.359375 0.375 -0.984375 0.640625q-0.609375 0.265625 -1.5 0.265625zm0.25 -1.40625q0.921875 0 1.5625 -0.359375q0.640625 -0.359375 0.96875 -0.9375q0.328125 -0.578125 0.328125 -1.21875l0 -1.421875q-0.109375 0.109375 -0.453125 0.21875q-0.328125 0.09375 -0.765625 0.15625q-0.421875 0.0625 -0.828125 0.125q-0.40625 0.046875 -0.65625 0.078125q-0.609375 0.078125 -1.140625 0.265625q-0.53125 0.171875 -0.859375 0.515625q-0.3125 0.34375 -0.3125 0.9375q0 0.8125 0.609375 1.234375q0.609375 0.40625 1.546875 0.40625zm7.2864075 1.171875l0 -10.171875l1.5 0l0 1.578125l0.140625 0q0.3125 -0.8125 1.015625 -1.265625q0.71875 -0.453125 1.703125 -0.453125q1.015625 0 1.6875 0.453125q0.671875 0.453125 1.046875 1.265625l0.109375 0q0.390625 -0.78125 1.171875 -1.25q0.78125 -0.46875 1.875 -0.46875q1.359375 0 2.21875 0.859375q0.875 0.84375 0.875 2.640625l0 6.8125l-1.5625 0l0 -6.8125q0 -1.125 -0.625 -1.609375q-0.609375 -0.484375 -1.4375 -0.484375q-1.078125 0 -1.671875 0.65625q-0.578125 0.640625 -0.578125 1.625l0 6.625l-1.59375 0l0 -6.96875q0 -0.875 -0.5625 -1.40625q-0.5625 -0.53125 -1.453125 -0.53125q-0.609375 0 -1.140625 0.328125q-0.515625 0.328125 -0.84375 0.90625q-0.3125 0.5625 -0.3125 1.3125l0 6.359375l-1.5625 0z" fill-rule="nonzero"/><path fill="#0d2243" d="m337.43134 297.64307l-1.640625 0q-0.15625 -0.703125 -0.515625 -1.234375q-0.359375 -0.546875 -0.875 -0.90625q-0.5 -0.375 -1.125 -0.5625q-0.625 -0.1875 -1.296875 -0.1875q-1.234375 0 -2.234375 0.625q-1.0 0.625 -1.59375 1.84375q-0.578125 1.203125 -0.578125 2.96875q0 1.765625 0.578125 2.984375q0.59375 1.203125 1.59375 1.828125q1.0 0.625 2.234375 0.625q0.671875 0 1.296875 -0.1875q0.625 -0.1875 1.125 -0.546875q0.515625 -0.375 0.875 -0.90625q0.359375 -0.546875 0.515625 -1.25l1.640625 0q-0.1875 1.03125 -0.6875 1.859375q-0.484375 0.8125 -1.21875 1.390625q-0.71875 0.578125 -1.625 0.875q-0.90625 0.296875 -1.921875 0.296875q-1.75 0 -3.109375 -0.84375q-1.34375 -0.859375 -2.125 -2.421875q-0.765625 -1.5625 -0.765625 -3.703125q0 -2.15625 0.765625 -3.71875q0.78125 -1.5625 2.125 -2.40625q1.359375 -0.84375 3.109375 -0.84375q1.015625 0 1.921875 0.296875q0.90625 0.296875 1.625 0.875q0.734375 0.5625 1.21875 1.390625q0.5 0.8125 0.6875 1.859375zm6.5683594 9.546875q-1.375 0 -2.421875 -0.65625q-1.03125 -0.65625 -1.609375 -1.828125q-0.578125 -1.1875 -0.578125 -2.765625q0 -1.59375 0.578125 -2.78125q0.578125 -1.1875 1.609375 -1.84375q1.046875 -0.65625 2.421875 -0.65625q1.375 0 2.40625 0.65625q1.046875 0.65625 1.625 1.84375q0.578125 1.1875 0.578125 2.78125q0 1.578125 -0.578125 2.765625q-0.578125 1.171875 -1.625 1.828125q-1.03125 0.65625 -2.40625 0.65625zm0 -1.40625q1.046875 0 1.71875 -0.53125q0.6875 -0.546875 1.0 -1.421875q0.328125 -0.875 0.328125 -1.890625q0 -1.03125 -0.328125 -1.90625q-0.3125 -0.875 -1.0 -1.421875q-0.671875 -0.546875 -1.71875 -0.546875q-1.046875 0 -1.71875 0.546875q-0.671875 0.546875 -1.0 1.421875q-0.328125 0.875 -0.328125 1.90625q0 1.015625 0.328125 1.890625q0.328125 0.875 1.0 1.421875q0.671875 0.53125 1.71875 0.53125zm13.41156 -2.96875l0 -6.015625l1.5625 0l0 10.171875l-1.5625 0l0 -1.71875l-0.109375 0q-0.359375 0.765625 -1.109375 1.3125q-0.75 0.53125 -1.90625 0.53125q-0.953125 0 -1.703125 -0.40625q-0.734375 -0.421875 -1.15625 -1.265625q-0.421875 -0.859375 -0.421875 -2.15625l0 -6.46875l1.5625 0l0 6.359375q0 1.109375 0.625 1.78125q0.625 0.65625 1.59375 0.65625q0.578125 0 1.1875 -0.296875q0.609375 -0.296875 1.015625 -0.90625q0.421875 -0.625 0.421875 -1.578125zm5.9950256 -1.96875l0 6.125l-1.5625 0l0 -10.171875l1.5 0l0 1.578125l0.140625 0q0.359375 -0.765625 1.078125 -1.234375q0.734375 -0.484375 1.890625 -0.484375q1.03125 0 1.796875 0.421875q0.78125 0.421875 1.203125 1.28125q0.4375 0.84375 0.4375 2.140625l0 6.46875l-1.5625 0l0 -6.359375q0 -1.203125 -0.625 -1.875q-0.625 -0.671875 -1.703125 -0.671875q-0.75 0 -1.34375 0.328125q-0.578125 0.328125 -0.921875 0.953125q-0.328125 0.609375 -0.328125 1.5zm13.777679 -4.046875l0 1.328125l-5.28125 0l0 -1.328125l5.28125 0zm-3.734375 -2.4375l1.5625 0l0 9.6875q0 0.671875 0.1875 1.0q0.203125 0.328125 0.5 0.4375q0.3125 0.109375 0.65625 0.109375q0.265625 0 0.421875 -0.03125q0.171875 -0.03125 0.265625 -0.046875l0.328125 1.40625q-0.15625 0.046875 -0.453125 0.109375q-0.28125 0.0625 -0.71875 0.0625q-0.65625 0 -1.296875 -0.28125q-0.625 -0.28125 -1.046875 -0.859375q-0.40625 -0.59375 -0.40625 -1.46875l0 -10.125zm10.256226 12.828125q-1.46875 0 -2.546875 -0.65625q-1.0625 -0.65625 -1.640625 -1.828125q-0.5625 -1.171875 -0.5625 -2.75q0 -1.5625 0.5625 -2.75q0.578125 -1.203125 1.609375 -1.875q1.03125 -0.671875 2.40625 -0.671875q0.796875 0 1.578125 0.265625q0.78125 0.265625 1.40625 0.859375q0.640625 0.59375 1.015625 1.578125q0.375 0.96875 0.375 2.390625l0 0.65625l-7.84375 0l0 -1.34375l6.265625 0q0 -0.859375 -0.34375 -1.53125q-0.34375 -0.6875 -0.96875 -1.078125q-0.625 -0.390625 -1.484375 -0.390625q-0.921875 0 -1.609375 0.46875q-0.671875 0.453125 -1.046875 1.1875q-0.359375 0.734375 -0.359375 1.578125l0 0.90625q0 1.140625 0.390625 1.953125q0.40625 0.796875 1.125 1.21875q0.71875 0.40625 1.671875 0.40625q0.609375 0 1.109375 -0.171875q0.5 -0.1875 0.859375 -0.53125q0.375 -0.359375 0.5625 -0.890625l1.515625 0.421875q-0.234375 0.765625 -0.796875 1.34375q-0.5625 0.578125 -1.390625 0.90625q-0.828125 0.328125 -1.859375 0.328125zm6.5996704 -0.21875l0 -10.171875l1.5 0l0 1.53125l0.109375 0q0.28125 -0.75 1.0 -1.21875q0.734375 -0.46875 1.65625 -0.46875q0.171875 0 0.421875 0q0.265625 0 0.390625 0.015625l0 1.59375q-0.078125 -0.015625 -0.359375 -0.0625q-0.28125 -0.046875 -0.59375 -0.046875q-0.734375 0 -1.328125 0.3125q-0.578125 0.3125 -0.90625 0.859375q-0.328125 0.53125 -0.328125 1.21875l0 6.4375l-1.5625 0z" fill-rule="nonzero"/><path fill="#0d2243" d="m342.85962 322.1899q0 -2.515625 0.65625 -4.609375q0.65625 -2.109375 1.859375 -3.875l1.390625 0q-0.484375 0.65625 -0.90625 1.609375q-0.40625 0.953125 -0.71875 2.109375q-0.3125 1.140625 -0.484375 2.359375q-0.171875 1.21875 -0.171875 2.40625q0 1.578125 0.296875 3.203125q0.3125 1.609375 0.828125 3.0q0.515625 1.390625 1.15625 2.265625l-1.390625 0q-1.203125 -1.765625 -1.859375 -3.859375q-0.65625 -2.109375 -0.65625 -4.609375zm6.4139404 6.78125l0 -13.5625l4.59375 0q1.59375 0 2.609375 0.578125q1.015625 0.5625 1.5 1.546875q0.5 0.96875 0.5 2.15625q0 1.203125 -0.5 2.1875q-0.484375 0.984375 -1.5 1.5625q-1.0 0.578125 -2.59375 0.578125l-3.28125 0l0 -1.453125l3.234375 0q1.09375 0 1.75 -0.375q0.671875 -0.390625 0.96875 -1.03125q0.296875 -0.640625 0.296875 -1.46875q0 -0.8125 -0.296875 -1.453125q-0.296875 -0.640625 -0.96875 -1.0q-0.671875 -0.375 -1.78125 -0.375l-2.890625 0l0 12.109375l-1.640625 0zm22.76767 -9.328125l-1.640625 0q-0.15625 -0.703125 -0.515625 -1.234375q-0.359375 -0.546875 -0.875 -0.90625q-0.5 -0.375 -1.125 -0.5625q-0.625 -0.1875 -1.296875 -0.1875q-1.234375 0 -2.234375 0.625q-1.0 0.625 -1.59375 1.84375q-0.578125 1.203125 -0.578125 2.96875q0 1.765625 0.578125 2.984375q0.59375 1.203125 1.59375 1.828125q1.0 0.625 2.234375 0.625q0.671875 0 1.296875 -0.1875q0.625 -0.1875 1.125 -0.546875q0.515625 -0.375 0.875 -0.90625q0.359375 -0.546875 0.515625 -1.25l1.640625 0q-0.1875 1.03125 -0.6875 1.859375q-0.484375 0.8125 -1.21875 1.390625q-0.71875 0.578125 -1.625 0.875q-0.90625 0.296875 -1.921875 0.296875q-1.75 0 -3.109375 -0.84375q-1.34375 -0.859375 -2.125 -2.421875q-0.765625 -1.5625 -0.765625 -3.703125q0 -2.15625 0.765625 -3.71875q0.78125 -1.5625 2.125 -2.40625q1.359375 -0.84375 3.109375 -0.84375q1.015625 0 1.921875 0.296875q0.90625 0.296875 1.625 0.875q0.734375 0.5625 1.21875 1.390625q0.5 0.8125 0.6875 1.859375zm5.7714844 2.546875q0 2.5 -0.65625 4.609375q-0.640625 2.09375 -1.859375 3.859375l-1.375 0q0.46875 -0.65625 0.875 -1.609375q0.421875 -0.953125 0.734375 -2.09375q0.3125 -1.140625 0.484375 -2.359375q0.1875 -1.234375 0.1875 -2.40625q0 -1.578125 -0.3125 -3.203125q-0.296875 -1.625 -0.8125 -3.015625q-0.515625 -1.390625 -1.15625 -2.265625l1.375 0q1.21875 1.765625 1.859375 3.875q0.65625 2.09375 0.65625 4.609375z" fill-rule="nonzero"/><path fill="#c7d3e6" d="m666.7769 271.62103l0 0c0 -7.851013 6.364502 -14.215515 14.215515 -14.215515l94.15161 0c3.7702026 0 7.3859863 1.4976807 10.051941 4.1636047c2.6658936 2.6659546 4.163574 6.281708 4.163574 10.05191l0 56.86032c0 7.8509827 -6.364502 14.215485 -14.215515 14.215485l-94.15161 0c-7.851013 0 -14.215515 -6.364502 -14.215515 -14.215485z" fill-rule="evenodd"/><path fill="#0d2243" d="m693.4823 271.4087l1.96875 0l4.609375 11.25l0.15625 0l4.609375 -11.25l1.96875 0l0 13.5625l-1.546875 0l0 -10.3125l-0.125 0l-4.25 10.3125l-1.484375 0l-4.234375 -10.3125l-0.125 0l0 10.3125l-1.546875 0l0 -13.5625zm20.651978 13.78125q-1.46875 0 -2.546875 -0.65625q-1.0625 -0.65625 -1.640625 -1.828125q-0.5625 -1.171875 -0.5625 -2.75q0 -1.5625 0.5625 -2.75q0.578125 -1.203125 1.609375 -1.875q1.03125 -0.671875 2.40625 -0.671875q0.796875 0 1.578125 0.265625q0.78125 0.265625 1.40625 0.859375q0.640625 0.59375 1.015625 1.578125q0.375 0.96875 0.375 2.390625l0 0.65625l-7.84375 0l0 -1.34375l6.265625 0q0 -0.859375 -0.34375 -1.53125q-0.34375 -0.6875 -0.96875 -1.078125q-0.625 -0.390625 -1.484375 -0.390625q-0.921875 0 -1.609375 0.46875q-0.671875 0.453125 -1.046875 1.1875q-0.359375 0.734375 -0.359375 1.578125l0 0.90625q0 1.140625 0.390625 1.953125q0.40625 0.796875 1.125 1.21875q0.71875 0.40625 1.671875 0.40625q0.609375 0 1.109375 -0.171875q0.5 -0.1875 0.859375 -0.53125q0.375 -0.359375 0.5625 -0.890625l1.515625 0.421875q-0.234375 0.765625 -0.796875 1.34375q-0.5625 0.578125 -1.390625 0.90625q-0.828125 0.328125 -1.859375 0.328125zm6.5996704 -0.21875l0 -10.171875l1.5 0l0 1.578125l0.140625 0q0.3125 -0.8125 1.015625 -1.265625q0.71875 -0.453125 1.703125 -0.453125q1.015625 0 1.6875 0.453125q0.671875 0.453125 1.046875 1.265625l0.109375 0q0.390625 -0.78125 1.171875 -1.25q0.78125 -0.46875 1.875 -0.46875q1.359375 0 2.21875 0.859375q0.875 0.84375 0.875 2.640625l0 6.8125l-1.5625 0l0 -6.8125q0 -1.125 -0.625 -1.609375q-0.609375 -0.484375 -1.4375 -0.484375q-1.078125 0 -1.671875 0.65625q-0.578125 0.640625 -0.578125 1.625l0 6.625l-1.59375 0l0 -6.96875q0 -0.875 -0.5625 -1.40625q-0.5625 -0.53125 -1.453125 -0.53125q-0.609375 0 -1.140625 0.328125q-0.515625 0.328125 -0.84375 0.90625q-0.3125 0.5625 -0.3125 1.3125l0 6.359375l-1.5625 0zm20.343384 0.21875q-1.375 0 -2.421875 -0.65625q-1.03125 -0.65625 -1.609375 -1.828125q-0.578125 -1.1875 -0.578125 -2.765625q0 -1.59375 0.578125 -2.78125q0.578125 -1.1875 1.609375 -1.84375q1.046875 -0.65625 2.421875 -0.65625q1.375 0 2.40625 0.65625q1.046875 0.65625 1.625 1.84375q0.578125 1.1875 0.578125 2.78125q0 1.578125 -0.578125 2.765625q-0.578125 1.171875 -1.625 1.828125q-1.03125 0.65625 -2.40625 0.65625zm0 -1.40625q1.046875 0 1.71875 -0.53125q0.6875 -0.546875 1.0 -1.421875q0.328125 -0.875 0.328125 -1.890625q0 -1.03125 -0.328125 -1.90625q-0.3125 -0.875 -1.0 -1.421875q-0.671875 -0.546875 -1.71875 -0.546875q-1.046875 0 -1.71875 0.546875q-0.671875 0.546875 -1.0 1.421875q-0.328125 0.875 -0.328125 1.90625q0 1.015625 0.328125 1.890625q0.328125 0.875 1.0 1.421875q0.671875 0.53125 1.71875 0.53125zm7.00531 1.1875l0 -10.171875l1.5 0l0 1.53125l0.109375 0q0.28125 -0.75 1.0 -1.21875q0.734375 -0.46875 1.65625 -0.46875q0.171875 0 0.421875 0q0.265625 0 0.390625 0.015625l0 1.59375q-0.078125 -0.015625 -0.359375 -0.0625q-0.28125 -0.046875 -0.59375 -0.046875q-0.734375 0 -1.328125 0.3125q-0.578125 0.3125 -0.90625 0.859375q-0.328125 0.53125 -0.328125 1.21875l0 6.4375l-1.5625 0zm8.261353 3.8125q-0.390625 0 -0.703125 -0.0625q-0.3125 -0.0625 -0.4375 -0.125l0.40625 -1.375q0.5625 0.140625 1.0 0.09375q0.4375 -0.03125 0.78125 -0.375q0.34375 -0.34375 0.625 -1.125l0.296875 -0.796875l-3.765625 -10.21875l1.6875 0l2.8125 8.109375l0.109375 0l2.8125 -8.109375l1.6875 0l-4.3125 11.65625q-0.296875 0.78125 -0.734375 1.296875q-0.421875 0.53125 -1.0 0.78125q-0.5625 0.25 -1.265625 0.25z" fill-rule="nonzero"/><path fill="#0d2243" d="m698.3645 306.9712l-1.71875 0l4.96875 -13.5625l1.703125 0l4.984375 13.5625l-1.71875 0l-4.0625 -11.421875l-0.109375 0l-4.046875 11.421875zm0.625 -5.296875l6.953125 0l0 1.453125l-6.953125 0l0 -1.453125zm15.348694 5.515625q-1.421875 0 -2.46875 -0.671875q-1.03125 -0.6875 -1.59375 -1.875q-0.546875 -1.1875 -0.546875 -2.703125q0 -1.546875 0.5625 -2.734375q0.578125 -1.203125 1.609375 -1.875q1.03125 -0.671875 2.40625 -0.671875q1.078125 0 1.9375 0.40625q0.859375 0.390625 1.40625 1.109375q0.5625 0.71875 0.6875 1.671875l-1.5625 0q-0.171875 -0.703125 -0.796875 -1.234375q-0.609375 -0.546875 -1.640625 -0.546875q-0.90625 0 -1.59375 0.484375q-0.6875 0.46875 -1.078125 1.328125q-0.375 0.859375 -0.375 2.0q0 1.1875 0.375 2.0625q0.375 0.875 1.0625 1.359375q0.6875 0.484375 1.609375 0.484375q0.609375 0 1.109375 -0.203125q0.5 -0.21875 0.84375 -0.609375q0.34375 -0.40625 0.484375 -0.96875l1.5625 0q-0.125 0.90625 -0.65625 1.625q-0.515625 0.71875 -1.375 1.140625q-0.84375 0.421875 -1.96875 0.421875zm10.414795 0q-1.421875 0 -2.46875 -0.671875q-1.03125 -0.6875 -1.59375 -1.875q-0.546875 -1.1875 -0.546875 -2.703125q0 -1.546875 0.5625 -2.734375q0.578125 -1.203125 1.609375 -1.875q1.03125 -0.671875 2.40625 -0.671875q1.078125 0 1.9375 0.40625q0.859375 0.390625 1.40625 1.109375q0.5625 0.71875 0.6875 1.671875l-1.5625 0q-0.171875 -0.703125 -0.796875 -1.234375q-0.609375 -0.546875 -1.640625 -0.546875q-0.90625 0 -1.59375 0.484375q-0.6875 0.46875 -1.078125 1.328125q-0.375 0.859375 -0.375 2.0q0 1.1875 0.375 2.0625q0.375 0.875 1.0625 1.359375q0.6875 0.484375 1.609375 0.484375q0.609375 0 1.109375 -0.203125q0.5 -0.21875 0.84375 -0.609375q0.34375 -0.40625 0.484375 -0.96875l1.5625 0q-0.125 0.90625 -0.65625 1.625q-0.515625 0.71875 -1.375 1.140625q-0.84375 0.421875 -1.96875 0.421875zm10.55542 0q-1.46875 0 -2.546875 -0.65625q-1.0625 -0.65625 -1.640625 -1.828125q-0.5625 -1.171875 -0.5625 -2.75q0 -1.5625 0.5625 -2.75q0.578125 -1.203125 1.609375 -1.875q1.03125 -0.671875 2.40625 -0.671875q0.796875 0 1.578125 0.265625q0.78125 0.265625 1.40625 0.859375q0.640625 0.59375 1.015625 1.578125q0.375 0.96875 0.375 2.390625l0 0.65625l-7.84375 0l0 -1.34375l6.265625 0q0 -0.859375 -0.34375 -1.53125q-0.34375 -0.6875 -0.96875 -1.078125q-0.625 -0.390625 -1.484375 -0.390625q-0.921875 0 -1.609375 0.46875q-0.671875 0.453125 -1.046875 1.1875q-0.359375 0.734375 -0.359375 1.578125l0 0.90625q0 1.140625 0.390625 1.953125q0.40625 0.796875 1.125 1.21875q0.71875 0.40625 1.671875 0.40625q0.609375 0 1.109375 -0.171875q0.5 -0.1875 0.859375 -0.53125q0.375 -0.359375 0.5625 -0.890625l1.515625 0.421875q-0.234375 0.765625 -0.796875 1.34375q-0.5625 0.578125 -1.390625 0.90625q-0.828125 0.328125 -1.859375 0.328125zm13.802795 -8.109375l-1.40625 0.390625q-0.125 -0.34375 -0.390625 -0.671875q-0.25 -0.34375 -0.6875 -0.5625q-0.4375 -0.21875 -1.125 -0.21875q-0.9375 0 -1.5625 0.421875q-0.609375 0.421875 -0.609375 1.078125q0 0.59375 0.421875 0.9375q0.421875 0.328125 1.328125 0.546875l1.515625 0.375q1.359375 0.328125 2.03125 1.015625q0.671875 0.671875 0.671875 1.75q0 0.859375 -0.5 1.5625q-0.5 0.6875 -1.40625 1.09375q-0.890625 0.390625 -2.078125 0.390625q-1.546875 0 -2.578125 -0.671875q-1.015625 -0.6875 -1.28125 -1.984375l1.484375 -0.375q0.203125 0.828125 0.796875 1.234375q0.59375 0.40625 1.5625 0.40625q1.09375 0 1.734375 -0.453125q0.640625 -0.46875 0.640625 -1.125q0 -0.53125 -0.375 -0.890625q-0.359375 -0.375 -1.125 -0.546875l-1.703125 -0.390625q-1.390625 -0.34375 -2.046875 -1.03125q-0.65625 -0.703125 -0.65625 -1.765625q0 -0.859375 0.484375 -1.515625q0.484375 -0.65625 1.328125 -1.03125q0.859375 -0.390625 1.921875 -0.390625q1.515625 0 2.375 0.671875q0.875 0.65625 1.234375 1.75zm9.752258 0l-1.40625 0.390625q-0.125 -0.34375 -0.390625 -0.671875q-0.25 -0.34375 -0.6875 -0.5625q-0.4375 -0.21875 -1.125 -0.21875q-0.9375 0 -1.5625 0.421875q-0.609375 0.421875 -0.609375 1.078125q0 0.59375 0.421875 0.9375q0.421875 0.328125 1.328125 0.546875l1.515625 0.375q1.359375 0.328125 2.03125 1.015625q0.671875 0.671875 0.671875 1.75q0 0.859375 -0.5 1.5625q-0.5 0.6875 -1.40625 1.09375q-0.890625 0.390625 -2.078125 0.390625q-1.546875 0 -2.578125 -0.671875q-1.015625 -0.6875 -1.28125 -1.984375l1.484375 -0.375q0.203125 0.828125 0.796875 1.234375q0.59375 0.40625 1.5625 0.40625q1.09375 0 1.734375 -0.453125q0.640625 -0.46875 0.640625 -1.125q0 -0.53125 -0.375 -0.890625q-0.359375 -0.375 -1.125 -0.546875l-1.703125 -0.390625q-1.390625 -0.34375 -2.046875 -1.03125q-0.65625 -0.703125 -0.65625 -1.765625q0 -0.859375 0.484375 -1.515625q0.484375 -0.65625 1.328125 -1.03125q0.859375 -0.390625 1.921875 -0.390625q1.515625 0 2.375 0.671875q0.875 0.65625 1.234375 1.75z" fill-rule="nonzero"/><path fill="#0d2243" d="m708.69305 322.1899q0 -2.515625 0.65625 -4.609375q0.65625 -2.109375 1.859375 -3.875l1.390625 0q-0.484375 0.65625 -0.90625 1.609375q-0.40625 0.953125 -0.71875 2.109375q-0.3125 1.140625 -0.484375 2.359375q-0.171875 1.21875 -0.171875 2.40625q0 1.578125 0.296875 3.203125q0.3125 1.609375 0.828125 3.0q0.515625 1.390625 1.15625 2.265625l-1.390625 0q-1.203125 -1.765625 -1.859375 -3.859375q-0.65625 -2.109375 -0.65625 -4.609375zm6.4139404 -6.78125l1.96875 0l4.609375 11.25l0.15625 0l4.609375 -11.25l1.96875 0l0 13.5625l-1.546875 0l0 -10.3125l-0.125 0l-4.25 10.3125l-1.484375 0l-4.234375 -10.3125l-0.125 0l0 10.3125l-1.546875 0l0 -13.5625zm17.151917 13.5625l-1.71875 0l4.96875 -13.5625l1.703125 0l4.984375 13.5625l-1.71875 0l-4.0625 -11.421875l-0.109375 0l-4.046875 11.421875zm0.625 -5.296875l6.953125 0l0 1.453125l-6.953125 0l0 -1.453125zm14.551819 -1.484375q0 2.5 -0.65625 4.609375q-0.640625 2.09375 -1.859375 3.859375l-1.375 0q0.46875 -0.65625 0.875 -1.609375q0.421875 -0.953125 0.734375 -2.09375q0.3125 -1.140625 0.484375 -2.359375q0.1875 -1.234375 0.1875 -2.40625q0 -1.578125 -0.3125 -3.203125q-0.296875 -1.625 -0.8125 -3.015625q-0.515625 -1.390625 -1.15625 -2.265625l1.375 0q1.21875 1.765625 1.859375 3.875q0.65625 2.09375 0.65625 4.609375z" fill-rule="nonzero"/><path fill="#c7d3e6" d="m749.4383 118.954216l85.25989 0l0 31.30709l-85.25989 0z" fill-rule="evenodd"/><path stroke="#0d2243" stroke-width="2.0" stroke-miterlimit="800.0" stroke-linecap="butt" d="m749.4383 118.954216l85.25989 0l0 31.30709l-85.25989 0z" fill-rule="evenodd"/><path fill="#0d2243" d="m792.1606 142.01088q-0.890625 -0.015625 -1.78125 -0.34375q-0.890625 -0.328125 -1.640625 -1.109375q-0.734375 -0.78125 -1.1875 -2.109375q-0.4375 -1.328125 -0.4375 -3.34375q0 -1.9375 0.359375 -3.421875q0.359375 -1.5 1.046875 -2.515625q0.6875 -1.03125 1.65625 -1.5624924q0.984375 -0.546875 2.21875 -0.546875q1.21875 0 2.171875 0.5q0.953125 0.48436737 1.5625 1.3593674q0.609375 0.859375 0.78125 1.984375l-1.734375 0q-0.234375 -0.984375 -0.9375 -1.625q-0.6875 -0.65625 -1.84375 -0.65625q-1.6875 0 -2.65625 1.484375q-0.96875 1.46875 -0.984375 4.125l0.125 0q0.390625 -0.609375 0.9375 -1.03125q0.546875 -0.4375 1.21875 -0.671875q0.671875 -0.234375 1.421875 -0.234375q1.25 0 2.28125 0.625q1.03125 0.609375 1.65625 1.703125q0.625 1.09375 0.625 2.5q0 1.34375 -0.609375 2.46875q-0.59375 1.125 -1.6875 1.78125q-1.078125 0.65625 -2.5625 0.640625zm0 -1.5625q0.90625 0 1.609375 -0.453125q0.71875 -0.453125 1.125 -1.203125q0.421875 -0.75 0.421875 -1.671875q0 -0.90625 -0.40625 -1.640625q-0.390625 -0.75 -1.09375 -1.1875q-0.703125 -0.4375 -1.59375 -0.4375q-0.671875 0 -1.265625 0.265625q-0.578125 0.265625 -1.015625 0.734375q-0.4375 0.453125 -0.6875 1.046875q-0.234375 0.59375 -0.234375 1.25q0 0.859375 0.40625 1.625q0.40625 0.75 1.109375 1.21875q0.71875 0.453125 1.625 0.453125z" fill-rule="nonzero"/><path fill="#000000" fill-opacity="0.0" d="m813.0182 150.26038l7.6868286 -9.6666565l7.5542603 9.6666565" fill-rule="evenodd"/><path stroke="#0d2243" stroke-width="2.0" stroke-linejoin="round" stroke-linecap="butt" d="m813.0182 150.26038l7.6868286 -9.6666565l7.5542603 9.6666565" fill-rule="evenodd"/><path fill="#c7d3e6" d="m533.4383 100.05658l85.25989 0l0 31.307083l-85.25989 0z" fill-rule="evenodd"/><path stroke="#0d2243" stroke-width="2.0" stroke-miterlimit="800.0" stroke-linecap="butt" d="m533.4383 100.05658l85.25989 0l0 31.307083l-85.25989 0z" fill-rule="evenodd"/><path fill="#0d2243" d="m576.1265 123.11325q-1.40625 0 -2.515625 -0.484375q-1.09375 -0.484375 -1.734375 -1.34375q-0.640625 -0.875 -0.6875 -2.015625l1.78125 0q0.0625 0.703125 0.484375 1.21875q0.421875 0.5 1.109375 0.78125q0.6875 0.28125 1.53125 0.28125q0.9375 0 1.65625 -0.328125q0.734375 -0.328125 1.140625 -0.90625q0.421875 -0.59375 0.421875 -1.359375q0 -0.796875 -0.40625 -1.40625q-0.390625 -0.625 -1.171875 -0.96875q-0.765625 -0.34375 -1.859375 -0.34375l-1.171875 0l0 -1.5625l1.171875 0q0.859375 0 1.515625 -0.3125q0.65625 -0.3125 1.03125 -0.875q0.375 -0.578125 0.375 -1.34375q0 -0.734375 -0.328125 -1.28125q-0.328125 -0.546875 -0.921875 -0.84375q-0.59375 -0.3125 -1.390625 -0.3125q-0.75 0 -1.421875 0.28125q-0.65625 0.265625 -1.078125 0.78125q-0.421875 0.5 -0.453125 1.234375l-1.703125 0q0.03125 -1.140625 0.671875 -2.0q0.65625 -0.875 1.703125 -1.359375q1.046875 -0.484375 2.3125 -0.484375q1.34375 0 2.3125 0.546875q0.96875 0.546875 1.484375 1.4375q0.515625 0.890625 0.515625 1.90625q0 1.234375 -0.640625 2.109375q-0.640625 0.859375 -1.75 1.1875l0 0.125q1.375 0.21875 2.140625 1.171875q0.78125 0.9375 0.78125 2.3125q0 1.1875 -0.640625 2.140625q-0.640625 0.9375 -1.75 1.484375q-1.109375 0.53125 -2.515625 0.53125z" fill-rule="nonzero"/><path fill="#000000" fill-opacity="0.0" d="m555.1183 100.0575l-7.6868286 9.666664l-7.5542603 -9.666664" fill-rule="evenodd"/><path stroke="#0d2243" stroke-width="2.0" stroke-linejoin="round" stroke-linecap="butt" d="m555.1183 100.0575l-7.6868286 9.666664l-7.5542603 -9.666664" fill-rule="evenodd"/></g></svg>